%TF.GenerationSoftware,KiCad,Pcbnew,7.0.10*%
%TF.CreationDate,2024-03-12T15:44:40-06:00*%
%TF.ProjectId,Candy_Machine_rev2,43616e64-795f-44d6-9163-68696e655f72,rev?*%
%TF.SameCoordinates,Original*%
%TF.FileFunction,Soldermask,Top*%
%TF.FilePolarity,Negative*%
%FSLAX46Y46*%
G04 Gerber Fmt 4.6, Leading zero omitted, Abs format (unit mm)*
G04 Created by KiCad (PCBNEW 7.0.10) date 2024-03-12 15:44:40*
%MOMM*%
%LPD*%
G01*
G04 APERTURE LIST*
%ADD10C,1.440000*%
%ADD11R,1.700000X1.700000*%
%ADD12O,1.700000X1.700000*%
%ADD13R,1.600000X1.600000*%
%ADD14C,1.600000*%
%ADD15O,1.600000X1.600000*%
G04 APERTURE END LIST*
D10*
%TO.C,RV3*%
X124083878Y-92975142D03*
X124083878Y-95515142D03*
X124083878Y-98055142D03*
%TD*%
D11*
%TO.C,J4*%
X117225878Y-120142000D03*
D12*
X117225878Y-117602000D03*
%TD*%
D11*
%TO.C,J8*%
X176153878Y-99314000D03*
D12*
X173613878Y-99314000D03*
%TD*%
D11*
%TO.C,J3*%
X117225878Y-109220000D03*
D12*
X117225878Y-106680000D03*
%TD*%
D10*
%TO.C,RV4*%
X124083878Y-114808000D03*
X124083878Y-117348000D03*
X124083878Y-119888000D03*
%TD*%
D11*
%TO.C,J7*%
X176153878Y-93472000D03*
D12*
X173613878Y-93472000D03*
%TD*%
D13*
%TO.C,A1*%
X131703878Y-76454000D03*
D14*
X131703878Y-78994000D03*
X131703878Y-81534000D03*
X131703878Y-84074000D03*
X131703878Y-86614000D03*
X131703878Y-89154000D03*
X131703878Y-91694000D03*
X131703878Y-94234000D03*
X131703878Y-96774000D03*
X131703878Y-99314000D03*
X131703878Y-101854000D03*
X131703878Y-104394000D03*
X131703878Y-106934000D03*
X131703878Y-109474000D03*
X131703878Y-112014000D03*
X131703878Y-114554000D03*
X152023878Y-114554000D03*
X152023878Y-112014000D03*
X152023878Y-109474000D03*
X152023878Y-106934000D03*
X152023878Y-104394000D03*
X152023878Y-101854000D03*
X152023878Y-99314000D03*
X152023878Y-96774000D03*
X152023878Y-94234000D03*
X152023878Y-91694000D03*
X152023878Y-89154000D03*
X152023878Y-86614000D03*
%TD*%
D10*
%TO.C,RV1*%
X124083878Y-81788000D03*
X124083878Y-84328000D03*
X124083878Y-86868000D03*
%TD*%
D14*
%TO.C,C1*%
X165993878Y-115062000D03*
X165993878Y-112562000D03*
%TD*%
D11*
%TO.C,J2*%
X167263878Y-97282000D03*
D12*
X167263878Y-99822000D03*
X167263878Y-102362000D03*
X167263878Y-104902000D03*
X167263878Y-107442000D03*
%TD*%
D13*
%TO.C,U1*%
X156087878Y-97282000D03*
D15*
X156087878Y-99822000D03*
X156087878Y-102362000D03*
X156087878Y-104902000D03*
X156087878Y-107442000D03*
X156087878Y-109982000D03*
X156087878Y-112522000D03*
X156087878Y-115062000D03*
X163707878Y-115062000D03*
X163707878Y-112522000D03*
X163707878Y-109982000D03*
X163707878Y-107442000D03*
X163707878Y-104902000D03*
X163707878Y-102362000D03*
X163707878Y-99822000D03*
X163707878Y-97282000D03*
%TD*%
D11*
%TO.C,J6*%
X117225878Y-98298000D03*
D12*
X117225878Y-95758000D03*
X117225878Y-93218000D03*
%TD*%
D11*
%TO.C,J1*%
X163707878Y-87376000D03*
D12*
X161167878Y-87376000D03*
X158627878Y-87376000D03*
%TD*%
D11*
%TO.C,J5*%
X117225878Y-87122000D03*
D12*
X117225878Y-84582000D03*
X117225878Y-82042000D03*
%TD*%
D11*
%TO.C,J9*%
X176153878Y-105156000D03*
D12*
X173613878Y-105156000D03*
%TD*%
D10*
%TO.C,RV2*%
X124083878Y-103891570D03*
X124083878Y-106431570D03*
X124083878Y-108971570D03*
%TD*%
M02*
