M48
; DRILL file {KiCad 7.0.10} date Tue 12 Mar 2024 03:44:46 PM MDT
; FORMAT={-:-/ absolute / inch / decimal}
; #@! TF.CreationDate,2024-03-12T15:44:46-06:00
; #@! TF.GenerationSoftware,Kicad,Pcbnew,7.0.10
; #@! TF.FileFunction,Plated,1,2,PTH
FMAT,2
INCH
; #@! TA.AperFunction,Plated,PTH,ComponentDrill
T1C0.0315
; #@! TA.AperFunction,Plated,PTH,ComponentDrill
T2C0.0394
%
G90
G05
T1
X4.8852Y-3.22
X4.8852Y-3.32
X4.8852Y-3.42
X4.8852Y-3.6604
X4.8852Y-3.7604
X4.8852Y-3.8604
X4.8852Y-4.0902
X4.8852Y-4.1902
X4.8852Y-4.2902
X4.8852Y-4.52
X4.8852Y-4.62
X4.8852Y-4.72
X5.1852Y-3.01
X5.1852Y-3.11
X5.1852Y-3.21
X5.1852Y-3.31
X5.1852Y-3.41
X5.1852Y-3.51
X5.1852Y-3.61
X5.1852Y-3.71
X5.1852Y-3.81
X5.1852Y-3.91
X5.1852Y-4.01
X5.1852Y-4.11
X5.1852Y-4.21
X5.1852Y-4.31
X5.1852Y-4.41
X5.1852Y-4.51
X5.9852Y-3.41
X5.9852Y-3.51
X5.9852Y-3.61
X5.9852Y-3.71
X5.9852Y-3.81
X5.9852Y-3.91
X5.9852Y-4.01
X5.9852Y-4.11
X5.9852Y-4.21
X5.9852Y-4.31
X5.9852Y-4.41
X5.9852Y-4.51
X6.1452Y-3.83
X6.1452Y-3.93
X6.1452Y-4.03
X6.1452Y-4.13
X6.1452Y-4.23
X6.1452Y-4.33
X6.1452Y-4.43
X6.1452Y-4.53
X6.4452Y-3.83
X6.4452Y-3.93
X6.4452Y-4.03
X6.4452Y-4.13
X6.4452Y-4.23
X6.4452Y-4.33
X6.4452Y-4.43
X6.4452Y-4.53
X6.5352Y-4.4316
X6.5352Y-4.53
T2
X4.6152Y-3.23
X4.6152Y-3.33
X4.6152Y-3.43
X4.6152Y-3.67
X4.6152Y-3.77
X4.6152Y-3.87
X4.6152Y-4.2
X4.6152Y-4.3
X4.6152Y-4.63
X4.6152Y-4.73
X6.2452Y-3.44
X6.3452Y-3.44
X6.4452Y-3.44
X6.5852Y-3.83
X6.5852Y-3.93
X6.5852Y-4.03
X6.5852Y-4.13
X6.5852Y-4.23
X6.8352Y-3.68
X6.8352Y-3.91
X6.8352Y-4.14
X6.9352Y-3.68
X6.9352Y-3.91
X6.9352Y-4.14
M30
