%TF.GenerationSoftware,KiCad,Pcbnew,7.0.10*%
%TF.CreationDate,2024-03-12T15:44:40-06:00*%
%TF.ProjectId,Candy_Machine_rev2,43616e64-795f-44d6-9163-68696e655f72,rev?*%
%TF.SameCoordinates,Original*%
%TF.FileFunction,Copper,L2,Bot*%
%TF.FilePolarity,Positive*%
%FSLAX46Y46*%
G04 Gerber Fmt 4.6, Leading zero omitted, Abs format (unit mm)*
G04 Created by KiCad (PCBNEW 7.0.10) date 2024-03-12 15:44:40*
%MOMM*%
%LPD*%
G01*
G04 APERTURE LIST*
%TA.AperFunction,ComponentPad*%
%ADD10C,1.440000*%
%TD*%
%TA.AperFunction,ComponentPad*%
%ADD11R,1.700000X1.700000*%
%TD*%
%TA.AperFunction,ComponentPad*%
%ADD12O,1.700000X1.700000*%
%TD*%
%TA.AperFunction,ComponentPad*%
%ADD13R,1.600000X1.600000*%
%TD*%
%TA.AperFunction,ComponentPad*%
%ADD14C,1.600000*%
%TD*%
%TA.AperFunction,ComponentPad*%
%ADD15O,1.600000X1.600000*%
%TD*%
%TA.AperFunction,Conductor*%
%ADD16C,0.508000*%
%TD*%
G04 APERTURE END LIST*
D10*
%TO.P,RV3,1,1*%
%TO.N,Net-(J6-Pin_3)*%
X124083878Y-92975142D03*
%TO.P,RV3,2,2*%
%TO.N,A1*%
X124083878Y-95515142D03*
%TO.P,RV3,3,3*%
%TO.N,unconnected-(RV3-Pad3)*%
X124083878Y-98055142D03*
%TD*%
D11*
%TO.P,J4,1,Pin_1*%
%TO.N,GND*%
X117225878Y-120142000D03*
D12*
%TO.P,J4,2,Pin_2*%
%TO.N,Net-(J4-Pin_2)*%
X117225878Y-117602000D03*
%TD*%
D11*
%TO.P,J8,1,Pin_1*%
%TO.N,GND*%
X176153878Y-99314000D03*
D12*
%TO.P,J8,2,Pin_2*%
%TO.N,D0*%
X173613878Y-99314000D03*
%TD*%
D11*
%TO.P,J3,1,Pin_1*%
%TO.N,GND*%
X117225878Y-109220000D03*
D12*
%TO.P,J3,2,Pin_2*%
%TO.N,Net-(J3-Pin_2)*%
X117225878Y-106680000D03*
%TD*%
D10*
%TO.P,RV4,1,1*%
%TO.N,unconnected-(RV4-Pad1)*%
X124083878Y-114808000D03*
%TO.P,RV4,2,2*%
%TO.N,Net-(J4-Pin_2)*%
X124083878Y-117348000D03*
%TO.P,RV4,3,3*%
%TO.N,+3V3*%
X124083878Y-119888000D03*
%TD*%
D11*
%TO.P,J7,1,Pin_1*%
%TO.N,GND*%
X176153878Y-93472000D03*
D12*
%TO.P,J7,2,Pin_2*%
%TO.N,Net-(A1-EN)*%
X173613878Y-93472000D03*
%TD*%
D13*
%TO.P,A1,1,~{RESET}*%
%TO.N,unconnected-(A1-~{RESET}-Pad1)*%
X131703878Y-76454000D03*
D14*
%TO.P,A1,2,3V3*%
%TO.N,+3V3*%
X131703878Y-78994000D03*
%TO.P,A1,3,AREF*%
%TO.N,unconnected-(A1-AREF-Pad3)*%
X131703878Y-81534000D03*
%TO.P,A1,4,GND*%
%TO.N,GND*%
X131703878Y-84074000D03*
%TO.P,A1,5,A0*%
%TO.N,A0*%
X131703878Y-86614000D03*
%TO.P,A1,6,A1*%
%TO.N,A1*%
X131703878Y-89154000D03*
%TO.P,A1,7,A2*%
%TO.N,unconnected-(A1-A2-Pad7)*%
X131703878Y-91694000D03*
%TO.P,A1,8,A3*%
%TO.N,unconnected-(A1-A3-Pad8)*%
X131703878Y-94234000D03*
%TO.P,A1,9,A4*%
%TO.N,unconnected-(A1-A4-Pad9)*%
X131703878Y-96774000D03*
%TO.P,A1,10,A5*%
%TO.N,unconnected-(A1-A5-Pad10)*%
X131703878Y-99314000D03*
%TO.P,A1,11,SCK*%
%TO.N,unconnected-(A1-SCK-Pad11)*%
X131703878Y-101854000D03*
%TO.P,A1,12,MOSI*%
%TO.N,unconnected-(A1-MOSI-Pad12)*%
X131703878Y-104394000D03*
%TO.P,A1,13,MISO*%
%TO.N,unconnected-(A1-MISO-Pad13)*%
X131703878Y-106934000D03*
%TO.P,A1,14,RX*%
%TO.N,unconnected-(A1-RX-Pad14)*%
X131703878Y-109474000D03*
%TO.P,A1,15,TX*%
%TO.N,unconnected-(A1-TX-Pad15)*%
X131703878Y-112014000D03*
%TO.P,A1,16,SPARE*%
%TO.N,unconnected-(A1-SPARE-Pad16)*%
X131703878Y-114554000D03*
%TO.P,A1,17,SDA*%
%TO.N,unconnected-(A1-SDA-Pad17)*%
X152023878Y-114554000D03*
%TO.P,A1,18,SCL*%
%TO.N,SLC*%
X152023878Y-112014000D03*
%TO.P,A1,19,D0*%
%TO.N,D0*%
X152023878Y-109474000D03*
%TO.P,A1,20,D1*%
%TO.N,D1*%
X152023878Y-106934000D03*
%TO.P,A1,21,D2*%
%TO.N,D9*%
X152023878Y-104394000D03*
%TO.P,A1,22,D3*%
%TO.N,D3*%
X152023878Y-101854000D03*
%TO.P,A1,23,D4*%
%TO.N,D4*%
X152023878Y-99314000D03*
%TO.P,A1,24,D5*%
%TO.N,unconnected-(A1-D5-Pad24)*%
X152023878Y-96774000D03*
%TO.P,A1,25,D6*%
%TO.N,unconnected-(A1-D6-Pad25)*%
X152023878Y-94234000D03*
%TO.P,A1,26,USB*%
%TO.N,unconnected-(A1-USB-Pad26)*%
X152023878Y-91694000D03*
%TO.P,A1,27,EN*%
%TO.N,Net-(A1-EN)*%
X152023878Y-89154000D03*
%TO.P,A1,28,VBAT*%
%TO.N,Net-(A1-VBAT)*%
X152023878Y-86614000D03*
%TD*%
D10*
%TO.P,RV1,1,1*%
%TO.N,Net-(J5-Pin_3)*%
X124083878Y-81788000D03*
%TO.P,RV1,2,2*%
%TO.N,A0*%
X124083878Y-84328000D03*
%TO.P,RV1,3,3*%
%TO.N,unconnected-(RV1-Pad3)*%
X124083878Y-86868000D03*
%TD*%
D14*
%TO.P,C1,1*%
%TO.N,Net-(J1-Pin_3)*%
X165993878Y-115062000D03*
%TO.P,C1,2*%
%TO.N,GND*%
X165993878Y-112562000D03*
%TD*%
D11*
%TO.P,J2,1,Pin_1*%
%TO.N,Net-(J2-Pin_1)*%
X167263878Y-97282000D03*
D12*
%TO.P,J2,2,Pin_2*%
%TO.N,Net-(J2-Pin_2)*%
X167263878Y-99822000D03*
%TO.P,J2,3,Pin_3*%
%TO.N,Net-(J2-Pin_3)*%
X167263878Y-102362000D03*
%TO.P,J2,4,Pin_4*%
%TO.N,Net-(J2-Pin_4)*%
X167263878Y-104902000D03*
%TO.P,J2,5,Pin_5*%
%TO.N,Net-(J1-Pin_3)*%
X167263878Y-107442000D03*
%TD*%
D13*
%TO.P,U1,1,I1*%
%TO.N,D4*%
X156087878Y-97282000D03*
D15*
%TO.P,U1,2,I2*%
%TO.N,D3*%
X156087878Y-99822000D03*
%TO.P,U1,3,I3*%
%TO.N,D9*%
X156087878Y-102362000D03*
%TO.P,U1,4,I4*%
%TO.N,D1*%
X156087878Y-104902000D03*
%TO.P,U1,5,I5*%
%TO.N,unconnected-(U1-I5-Pad5)*%
X156087878Y-107442000D03*
%TO.P,U1,6,I6*%
%TO.N,unconnected-(U1-I6-Pad6)*%
X156087878Y-109982000D03*
%TO.P,U1,7,I7*%
%TO.N,unconnected-(U1-I7-Pad7)*%
X156087878Y-112522000D03*
%TO.P,U1,8,GND*%
%TO.N,GND*%
X156087878Y-115062000D03*
%TO.P,U1,9,COM*%
%TO.N,Net-(J1-Pin_3)*%
X163707878Y-115062000D03*
%TO.P,U1,10,O7*%
%TO.N,unconnected-(U1-O7-Pad10)*%
X163707878Y-112522000D03*
%TO.P,U1,11,O6*%
%TO.N,unconnected-(U1-O6-Pad11)*%
X163707878Y-109982000D03*
%TO.P,U1,12,O5*%
%TO.N,unconnected-(U1-O5-Pad12)*%
X163707878Y-107442000D03*
%TO.P,U1,13,O4*%
%TO.N,Net-(J2-Pin_4)*%
X163707878Y-104902000D03*
%TO.P,U1,14,O3*%
%TO.N,Net-(J2-Pin_3)*%
X163707878Y-102362000D03*
%TO.P,U1,15,O2*%
%TO.N,Net-(J2-Pin_2)*%
X163707878Y-99822000D03*
%TO.P,U1,16,O1*%
%TO.N,Net-(J2-Pin_1)*%
X163707878Y-97282000D03*
%TD*%
D11*
%TO.P,J6,1,Pin_1*%
%TO.N,GND*%
X117225878Y-98298000D03*
D12*
%TO.P,J6,2,Pin_2*%
%TO.N,+3V3*%
X117225878Y-95758000D03*
%TO.P,J6,3,Pin_3*%
%TO.N,Net-(J6-Pin_3)*%
X117225878Y-93218000D03*
%TD*%
D11*
%TO.P,J1,1,Pin_1*%
%TO.N,Net-(A1-VBAT)*%
X163707878Y-87376000D03*
D12*
%TO.P,J1,2,Pin_2*%
%TO.N,GND*%
X161167878Y-87376000D03*
%TO.P,J1,3,Pin_3*%
%TO.N,Net-(J1-Pin_3)*%
X158627878Y-87376000D03*
%TD*%
D11*
%TO.P,J5,1,Pin_1*%
%TO.N,GND*%
X117225878Y-87122000D03*
D12*
%TO.P,J5,2,Pin_2*%
%TO.N,+3V3*%
X117225878Y-84582000D03*
%TO.P,J5,3,Pin_3*%
%TO.N,Net-(J5-Pin_3)*%
X117225878Y-82042000D03*
%TD*%
D11*
%TO.P,J9,1,Pin_1*%
%TO.N,GND*%
X176153878Y-105156000D03*
D12*
%TO.P,J9,2,Pin_2*%
%TO.N,SLC*%
X173613878Y-105156000D03*
%TD*%
D10*
%TO.P,RV2,1,1*%
%TO.N,unconnected-(RV2-Pad1)*%
X124083878Y-103891570D03*
%TO.P,RV2,2,2*%
%TO.N,Net-(J3-Pin_2)*%
X124083878Y-106431570D03*
%TO.P,RV2,3,3*%
%TO.N,+3V3*%
X124083878Y-108971570D03*
%TD*%
D16*
%TO.N,GND*%
X161167878Y-87376000D02*
X159262878Y-85471000D01*
X159262878Y-85471000D02*
X153924000Y-85471000D01*
X133100878Y-85471000D02*
X131703878Y-84074000D01*
X153289000Y-84836000D02*
X151384000Y-84836000D01*
X150749000Y-85471000D02*
X133100878Y-85471000D01*
X151384000Y-84836000D02*
X150749000Y-85471000D01*
X153924000Y-85471000D02*
X153289000Y-84836000D01*
%TD*%
%TA.AperFunction,Conductor*%
%TO.N,GND*%
G36*
X130652306Y-79775685D02*
G01*
X130686842Y-79808876D01*
X130703834Y-79833143D01*
X130864736Y-79994045D01*
X130864739Y-79994047D01*
X131051144Y-80124568D01*
X131109153Y-80151618D01*
X131161592Y-80197791D01*
X131180744Y-80264984D01*
X131160528Y-80331865D01*
X131109153Y-80376382D01*
X131051145Y-80403431D01*
X131051143Y-80403432D01*
X130864736Y-80533954D01*
X130703832Y-80694858D01*
X130573310Y-80881265D01*
X130573309Y-80881267D01*
X130477139Y-81087502D01*
X130477136Y-81087511D01*
X130418244Y-81307302D01*
X130418242Y-81307313D01*
X130398410Y-81533998D01*
X130398410Y-81534001D01*
X130418242Y-81760686D01*
X130418244Y-81760697D01*
X130477136Y-81980488D01*
X130477139Y-81980497D01*
X130573309Y-82186732D01*
X130573310Y-82186734D01*
X130703832Y-82373141D01*
X130864736Y-82534045D01*
X130864739Y-82534047D01*
X131051144Y-82664568D01*
X131109743Y-82691893D01*
X131162183Y-82738065D01*
X131181335Y-82805258D01*
X131161120Y-82872139D01*
X131109745Y-82916657D01*
X131051391Y-82943868D01*
X131051390Y-82943868D01*
X130978404Y-82994973D01*
X130978404Y-82994974D01*
X131659477Y-83676046D01*
X131578730Y-83688835D01*
X131465833Y-83746359D01*
X131376237Y-83835955D01*
X131318713Y-83948852D01*
X131305924Y-84029598D01*
X130624852Y-83348526D01*
X130624851Y-83348526D01*
X130573746Y-83421512D01*
X130573744Y-83421516D01*
X130477612Y-83627673D01*
X130477608Y-83627682D01*
X130418738Y-83847389D01*
X130418736Y-83847400D01*
X130398912Y-84073997D01*
X130398912Y-84074002D01*
X130418736Y-84300599D01*
X130418738Y-84300610D01*
X130477608Y-84520317D01*
X130477613Y-84520331D01*
X130573741Y-84726478D01*
X130624852Y-84799472D01*
X131305924Y-84118400D01*
X131318713Y-84199148D01*
X131376237Y-84312045D01*
X131465833Y-84401641D01*
X131578730Y-84459165D01*
X131659477Y-84471953D01*
X130978404Y-85153025D01*
X131051391Y-85204132D01*
X131051399Y-85204136D01*
X131109742Y-85231342D01*
X131162182Y-85277514D01*
X131181334Y-85344707D01*
X131161119Y-85411589D01*
X131109744Y-85456105D01*
X131051150Y-85483428D01*
X131051143Y-85483432D01*
X130864736Y-85613954D01*
X130703832Y-85774858D01*
X130573310Y-85961265D01*
X130573309Y-85961267D01*
X130477139Y-86167502D01*
X130477136Y-86167511D01*
X130418244Y-86387302D01*
X130418242Y-86387313D01*
X130398410Y-86613998D01*
X130398410Y-86614001D01*
X130418242Y-86840686D01*
X130418244Y-86840697D01*
X130477136Y-87060488D01*
X130477139Y-87060497D01*
X130573309Y-87266732D01*
X130573310Y-87266734D01*
X130703832Y-87453141D01*
X130864736Y-87614045D01*
X130864739Y-87614047D01*
X131051144Y-87744568D01*
X131109153Y-87771618D01*
X131161592Y-87817791D01*
X131180744Y-87884984D01*
X131160528Y-87951865D01*
X131109153Y-87996382D01*
X131051145Y-88023431D01*
X131051143Y-88023432D01*
X130864736Y-88153954D01*
X130703832Y-88314858D01*
X130573310Y-88501265D01*
X130573309Y-88501267D01*
X130477139Y-88707502D01*
X130477136Y-88707511D01*
X130418244Y-88927302D01*
X130418242Y-88927313D01*
X130398410Y-89153998D01*
X130398410Y-89154001D01*
X130418242Y-89380686D01*
X130418244Y-89380697D01*
X130477136Y-89600488D01*
X130477139Y-89600497D01*
X130573309Y-89806732D01*
X130573310Y-89806734D01*
X130703832Y-89993141D01*
X130864736Y-90154045D01*
X130864739Y-90154047D01*
X131051144Y-90284568D01*
X131109153Y-90311618D01*
X131161592Y-90357791D01*
X131180744Y-90424984D01*
X131160528Y-90491865D01*
X131109153Y-90536382D01*
X131051145Y-90563431D01*
X131051143Y-90563432D01*
X130864736Y-90693954D01*
X130703832Y-90854858D01*
X130573310Y-91041265D01*
X130573309Y-91041267D01*
X130477139Y-91247502D01*
X130477136Y-91247511D01*
X130418244Y-91467302D01*
X130418242Y-91467313D01*
X130398410Y-91693998D01*
X130398410Y-91694001D01*
X130418242Y-91920686D01*
X130418244Y-91920697D01*
X130477136Y-92140488D01*
X130477139Y-92140497D01*
X130573309Y-92346732D01*
X130573310Y-92346734D01*
X130703832Y-92533141D01*
X130864736Y-92694045D01*
X130864739Y-92694047D01*
X131051144Y-92824568D01*
X131109153Y-92851618D01*
X131161592Y-92897791D01*
X131180744Y-92964984D01*
X131160528Y-93031865D01*
X131109153Y-93076382D01*
X131051145Y-93103431D01*
X131051143Y-93103432D01*
X130864736Y-93233954D01*
X130703832Y-93394858D01*
X130573310Y-93581265D01*
X130573309Y-93581267D01*
X130477139Y-93787502D01*
X130477136Y-93787511D01*
X130418244Y-94007302D01*
X130418242Y-94007313D01*
X130398410Y-94233998D01*
X130398410Y-94234001D01*
X130418242Y-94460686D01*
X130418244Y-94460697D01*
X130477136Y-94680488D01*
X130477139Y-94680497D01*
X130573309Y-94886732D01*
X130573310Y-94886734D01*
X130703832Y-95073141D01*
X130864736Y-95234045D01*
X130864739Y-95234047D01*
X131051144Y-95364568D01*
X131109153Y-95391618D01*
X131161592Y-95437791D01*
X131180744Y-95504984D01*
X131160528Y-95571865D01*
X131109153Y-95616382D01*
X131051145Y-95643431D01*
X131051143Y-95643432D01*
X130864736Y-95773954D01*
X130703832Y-95934858D01*
X130573310Y-96121265D01*
X130573309Y-96121267D01*
X130477139Y-96327502D01*
X130477136Y-96327511D01*
X130418244Y-96547302D01*
X130418242Y-96547313D01*
X130398410Y-96773998D01*
X130398410Y-96774001D01*
X130418242Y-97000686D01*
X130418244Y-97000697D01*
X130477136Y-97220488D01*
X130477139Y-97220497D01*
X130573309Y-97426732D01*
X130573310Y-97426734D01*
X130703832Y-97613141D01*
X130864736Y-97774045D01*
X130864739Y-97774047D01*
X131051144Y-97904568D01*
X131109153Y-97931618D01*
X131161592Y-97977791D01*
X131180744Y-98044984D01*
X131160528Y-98111865D01*
X131109153Y-98156382D01*
X131051145Y-98183431D01*
X131051143Y-98183432D01*
X130864736Y-98313954D01*
X130703832Y-98474858D01*
X130573310Y-98661265D01*
X130573309Y-98661267D01*
X130477139Y-98867502D01*
X130477136Y-98867511D01*
X130418244Y-99087302D01*
X130418242Y-99087313D01*
X130398410Y-99313998D01*
X130398410Y-99314001D01*
X130418242Y-99540686D01*
X130418244Y-99540697D01*
X130477136Y-99760488D01*
X130477139Y-99760497D01*
X130573309Y-99966732D01*
X130573310Y-99966734D01*
X130703832Y-100153141D01*
X130864736Y-100314045D01*
X130864739Y-100314047D01*
X131051144Y-100444568D01*
X131109153Y-100471618D01*
X131161592Y-100517791D01*
X131180744Y-100584984D01*
X131160528Y-100651865D01*
X131109153Y-100696382D01*
X131051145Y-100723431D01*
X131051143Y-100723432D01*
X130864736Y-100853954D01*
X130703832Y-101014858D01*
X130573310Y-101201265D01*
X130573309Y-101201267D01*
X130477139Y-101407502D01*
X130477136Y-101407511D01*
X130418244Y-101627302D01*
X130418242Y-101627313D01*
X130398410Y-101853998D01*
X130398410Y-101854001D01*
X130418242Y-102080686D01*
X130418244Y-102080697D01*
X130477136Y-102300488D01*
X130477139Y-102300497D01*
X130573309Y-102506732D01*
X130573310Y-102506734D01*
X130703832Y-102693141D01*
X130864736Y-102854045D01*
X130864739Y-102854047D01*
X131051144Y-102984568D01*
X131109153Y-103011618D01*
X131161592Y-103057791D01*
X131180744Y-103124984D01*
X131160528Y-103191865D01*
X131109153Y-103236382D01*
X131051145Y-103263431D01*
X131051143Y-103263432D01*
X130864736Y-103393954D01*
X130703832Y-103554858D01*
X130573310Y-103741265D01*
X130573309Y-103741267D01*
X130477139Y-103947502D01*
X130477136Y-103947511D01*
X130418244Y-104167302D01*
X130418242Y-104167313D01*
X130398410Y-104393998D01*
X130398410Y-104394001D01*
X130418242Y-104620686D01*
X130418244Y-104620697D01*
X130477136Y-104840488D01*
X130477139Y-104840497D01*
X130573309Y-105046732D01*
X130573310Y-105046734D01*
X130703832Y-105233141D01*
X130864736Y-105394045D01*
X130864739Y-105394047D01*
X131051144Y-105524568D01*
X131109153Y-105551618D01*
X131161592Y-105597791D01*
X131180744Y-105664984D01*
X131160528Y-105731865D01*
X131109153Y-105776382D01*
X131051145Y-105803431D01*
X131051143Y-105803432D01*
X130864736Y-105933954D01*
X130703832Y-106094858D01*
X130573310Y-106281265D01*
X130573309Y-106281267D01*
X130477139Y-106487502D01*
X130477136Y-106487511D01*
X130418244Y-106707302D01*
X130418242Y-106707313D01*
X130398410Y-106933998D01*
X130398410Y-106934001D01*
X130418242Y-107160686D01*
X130418244Y-107160697D01*
X130477136Y-107380488D01*
X130477139Y-107380497D01*
X130573309Y-107586732D01*
X130573310Y-107586734D01*
X130703832Y-107773141D01*
X130864736Y-107934045D01*
X130864739Y-107934047D01*
X131051144Y-108064568D01*
X131109153Y-108091618D01*
X131161592Y-108137791D01*
X131180744Y-108204984D01*
X131160528Y-108271865D01*
X131109153Y-108316382D01*
X131051145Y-108343431D01*
X131051143Y-108343432D01*
X130864736Y-108473954D01*
X130703832Y-108634858D01*
X130573310Y-108821265D01*
X130573309Y-108821267D01*
X130477139Y-109027502D01*
X130477136Y-109027511D01*
X130418244Y-109247302D01*
X130418242Y-109247313D01*
X130398410Y-109473998D01*
X130398410Y-109474001D01*
X130418242Y-109700686D01*
X130418244Y-109700697D01*
X130477136Y-109920488D01*
X130477139Y-109920497D01*
X130573309Y-110126732D01*
X130573310Y-110126734D01*
X130703832Y-110313141D01*
X130864736Y-110474045D01*
X130864739Y-110474047D01*
X131051144Y-110604568D01*
X131109153Y-110631618D01*
X131161592Y-110677791D01*
X131180744Y-110744984D01*
X131160528Y-110811865D01*
X131109153Y-110856382D01*
X131051145Y-110883431D01*
X131051143Y-110883432D01*
X130864736Y-111013954D01*
X130703832Y-111174858D01*
X130573310Y-111361265D01*
X130573309Y-111361267D01*
X130477139Y-111567502D01*
X130477136Y-111567511D01*
X130418244Y-111787302D01*
X130418242Y-111787313D01*
X130398410Y-112013998D01*
X130398410Y-112014001D01*
X130418242Y-112240686D01*
X130418244Y-112240697D01*
X130477136Y-112460488D01*
X130477139Y-112460497D01*
X130573309Y-112666732D01*
X130573310Y-112666734D01*
X130703832Y-112853141D01*
X130864736Y-113014045D01*
X130864739Y-113014047D01*
X131051144Y-113144568D01*
X131109153Y-113171618D01*
X131161592Y-113217791D01*
X131180744Y-113284984D01*
X131160528Y-113351865D01*
X131109153Y-113396382D01*
X131051145Y-113423431D01*
X131051143Y-113423432D01*
X130864736Y-113553954D01*
X130703832Y-113714858D01*
X130573310Y-113901265D01*
X130573309Y-113901267D01*
X130477139Y-114107502D01*
X130477136Y-114107511D01*
X130418244Y-114327302D01*
X130418242Y-114327313D01*
X130398410Y-114553998D01*
X130398410Y-114554001D01*
X130418242Y-114780686D01*
X130418244Y-114780697D01*
X130477136Y-115000488D01*
X130477139Y-115000497D01*
X130573309Y-115206732D01*
X130573310Y-115206734D01*
X130703832Y-115393141D01*
X130864736Y-115554045D01*
X130864739Y-115554047D01*
X131051144Y-115684568D01*
X131257382Y-115780739D01*
X131477186Y-115839635D01*
X131639108Y-115853801D01*
X131703876Y-115859468D01*
X131703878Y-115859468D01*
X131703880Y-115859468D01*
X131760551Y-115854509D01*
X131930570Y-115839635D01*
X132150374Y-115780739D01*
X132356612Y-115684568D01*
X132543017Y-115554047D01*
X132703925Y-115393139D01*
X132834446Y-115206734D01*
X132930617Y-115000496D01*
X132989513Y-114780692D01*
X133009346Y-114554000D01*
X132989513Y-114327308D01*
X132930617Y-114107504D01*
X132834446Y-113901266D01*
X132703925Y-113714861D01*
X132703923Y-113714858D01*
X132543019Y-113553954D01*
X132356612Y-113423432D01*
X132356606Y-113423429D01*
X132298603Y-113396382D01*
X132246163Y-113350210D01*
X132227011Y-113283017D01*
X132247226Y-113216135D01*
X132298603Y-113171618D01*
X132356612Y-113144568D01*
X132543017Y-113014047D01*
X132703925Y-112853139D01*
X132834446Y-112666734D01*
X132930617Y-112460496D01*
X132989513Y-112240692D01*
X133009346Y-112014000D01*
X132989513Y-111787308D01*
X132930617Y-111567504D01*
X132834446Y-111361266D01*
X132703925Y-111174861D01*
X132703923Y-111174858D01*
X132543019Y-111013954D01*
X132356612Y-110883432D01*
X132356606Y-110883429D01*
X132298603Y-110856382D01*
X132246163Y-110810210D01*
X132227011Y-110743017D01*
X132247226Y-110676135D01*
X132298603Y-110631618D01*
X132356612Y-110604568D01*
X132543017Y-110474047D01*
X132703925Y-110313139D01*
X132834446Y-110126734D01*
X132930617Y-109920496D01*
X132989513Y-109700692D01*
X133009346Y-109474000D01*
X132989513Y-109247308D01*
X132930617Y-109027504D01*
X132834446Y-108821266D01*
X132703925Y-108634861D01*
X132703923Y-108634858D01*
X132543019Y-108473954D01*
X132356612Y-108343432D01*
X132356606Y-108343429D01*
X132311020Y-108322172D01*
X132298602Y-108316381D01*
X132246163Y-108270210D01*
X132227011Y-108203017D01*
X132247226Y-108136135D01*
X132298603Y-108091618D01*
X132356612Y-108064568D01*
X132543017Y-107934047D01*
X132703925Y-107773139D01*
X132834446Y-107586734D01*
X132930617Y-107380496D01*
X132989513Y-107160692D01*
X133009346Y-106934000D01*
X133007719Y-106915408D01*
X133003679Y-106869230D01*
X132989513Y-106707308D01*
X132930617Y-106487504D01*
X132834446Y-106281266D01*
X132703925Y-106094861D01*
X132703923Y-106094858D01*
X132543019Y-105933954D01*
X132356612Y-105803432D01*
X132356606Y-105803429D01*
X132298603Y-105776382D01*
X132246163Y-105730210D01*
X132227011Y-105663017D01*
X132247226Y-105596135D01*
X132298603Y-105551618D01*
X132356612Y-105524568D01*
X132543017Y-105394047D01*
X132703925Y-105233139D01*
X132834446Y-105046734D01*
X132930617Y-104840496D01*
X132989513Y-104620692D01*
X133009346Y-104394000D01*
X132989513Y-104167308D01*
X132930617Y-103947504D01*
X132834446Y-103741266D01*
X132703925Y-103554861D01*
X132703923Y-103554858D01*
X132543019Y-103393954D01*
X132356612Y-103263432D01*
X132356606Y-103263429D01*
X132298603Y-103236382D01*
X132246163Y-103190210D01*
X132227011Y-103123017D01*
X132247226Y-103056135D01*
X132298603Y-103011618D01*
X132356612Y-102984568D01*
X132543017Y-102854047D01*
X132703925Y-102693139D01*
X132834446Y-102506734D01*
X132930617Y-102300496D01*
X132989513Y-102080692D01*
X133009346Y-101854000D01*
X132989513Y-101627308D01*
X132930617Y-101407504D01*
X132834446Y-101201266D01*
X132703925Y-101014861D01*
X132703923Y-101014858D01*
X132543019Y-100853954D01*
X132356612Y-100723432D01*
X132356606Y-100723429D01*
X132298603Y-100696382D01*
X132246163Y-100650210D01*
X132227011Y-100583017D01*
X132247226Y-100516135D01*
X132298603Y-100471618D01*
X132356612Y-100444568D01*
X132543017Y-100314047D01*
X132703925Y-100153139D01*
X132834446Y-99966734D01*
X132930617Y-99760496D01*
X132989513Y-99540692D01*
X133009346Y-99314000D01*
X132989513Y-99087308D01*
X132930617Y-98867504D01*
X132834446Y-98661266D01*
X132703925Y-98474861D01*
X132703923Y-98474858D01*
X132543019Y-98313954D01*
X132356612Y-98183432D01*
X132356606Y-98183429D01*
X132298603Y-98156382D01*
X132246163Y-98110210D01*
X132227011Y-98043017D01*
X132247226Y-97976135D01*
X132298603Y-97931618D01*
X132356612Y-97904568D01*
X132543017Y-97774047D01*
X132703925Y-97613139D01*
X132834446Y-97426734D01*
X132930617Y-97220496D01*
X132989513Y-97000692D01*
X133009346Y-96774000D01*
X132989513Y-96547308D01*
X132930617Y-96327504D01*
X132834446Y-96121266D01*
X132703925Y-95934861D01*
X132703923Y-95934858D01*
X132543019Y-95773954D01*
X132356612Y-95643432D01*
X132356606Y-95643429D01*
X132298603Y-95616382D01*
X132246163Y-95570210D01*
X132227011Y-95503017D01*
X132247226Y-95436135D01*
X132298603Y-95391618D01*
X132356612Y-95364568D01*
X132543017Y-95234047D01*
X132703925Y-95073139D01*
X132834446Y-94886734D01*
X132930617Y-94680496D01*
X132989513Y-94460692D01*
X133009346Y-94234000D01*
X132989513Y-94007308D01*
X132930617Y-93787504D01*
X132834446Y-93581266D01*
X132703925Y-93394861D01*
X132703923Y-93394858D01*
X132543019Y-93233954D01*
X132356612Y-93103432D01*
X132356606Y-93103429D01*
X132298603Y-93076382D01*
X132246163Y-93030210D01*
X132227011Y-92963017D01*
X132247226Y-92896135D01*
X132298603Y-92851618D01*
X132356612Y-92824568D01*
X132543017Y-92694047D01*
X132703925Y-92533139D01*
X132834446Y-92346734D01*
X132930617Y-92140496D01*
X132989513Y-91920692D01*
X133009346Y-91694000D01*
X132989513Y-91467308D01*
X132930617Y-91247504D01*
X132834446Y-91041266D01*
X132703925Y-90854861D01*
X132703923Y-90854858D01*
X132543019Y-90693954D01*
X132356612Y-90563432D01*
X132356606Y-90563429D01*
X132298603Y-90536382D01*
X132246163Y-90490210D01*
X132227011Y-90423017D01*
X132247226Y-90356135D01*
X132298603Y-90311618D01*
X132356612Y-90284568D01*
X132543017Y-90154047D01*
X132703925Y-89993139D01*
X132834446Y-89806734D01*
X132930617Y-89600496D01*
X132989513Y-89380692D01*
X133009346Y-89154000D01*
X132989513Y-88927308D01*
X132930617Y-88707504D01*
X132834446Y-88501266D01*
X132703925Y-88314861D01*
X132703923Y-88314858D01*
X132543019Y-88153954D01*
X132356612Y-88023432D01*
X132356606Y-88023429D01*
X132298603Y-87996382D01*
X132246163Y-87950210D01*
X132227011Y-87883017D01*
X132247226Y-87816135D01*
X132298603Y-87771618D01*
X132356612Y-87744568D01*
X132543017Y-87614047D01*
X132703925Y-87453139D01*
X132834446Y-87266734D01*
X132930617Y-87060496D01*
X132989513Y-86840692D01*
X133009346Y-86614000D01*
X132989513Y-86387308D01*
X132930617Y-86167504D01*
X132834446Y-85961266D01*
X132703925Y-85774861D01*
X132703923Y-85774858D01*
X132543019Y-85613954D01*
X132356613Y-85483433D01*
X132356614Y-85483433D01*
X132356612Y-85483432D01*
X132298010Y-85456105D01*
X132245572Y-85409933D01*
X132226421Y-85342739D01*
X132246637Y-85275858D01*
X132298013Y-85231341D01*
X132356360Y-85204133D01*
X132429349Y-85153024D01*
X131748278Y-84471953D01*
X131829026Y-84459165D01*
X131941923Y-84401641D01*
X132031519Y-84312045D01*
X132089043Y-84199148D01*
X132101831Y-84118400D01*
X132782902Y-84799471D01*
X132834014Y-84726478D01*
X132930142Y-84520331D01*
X132930147Y-84520317D01*
X132989017Y-84300610D01*
X132989019Y-84300599D01*
X133008844Y-84074002D01*
X133008844Y-84073997D01*
X132989019Y-83847400D01*
X132989017Y-83847389D01*
X132930147Y-83627682D01*
X132930142Y-83627668D01*
X132834014Y-83421521D01*
X132834010Y-83421513D01*
X132782903Y-83348526D01*
X132101831Y-84029598D01*
X132089043Y-83948852D01*
X132031519Y-83835955D01*
X131941923Y-83746359D01*
X131829026Y-83688835D01*
X131748279Y-83676046D01*
X132429350Y-82994974D01*
X132356358Y-82943864D01*
X132298012Y-82916657D01*
X132245573Y-82870484D01*
X132226421Y-82803291D01*
X132246637Y-82736410D01*
X132298012Y-82691893D01*
X132356612Y-82664568D01*
X132543017Y-82534047D01*
X132703925Y-82373139D01*
X132834446Y-82186734D01*
X132930617Y-81980496D01*
X132989513Y-81760692D01*
X133009346Y-81534000D01*
X132989513Y-81307308D01*
X132930617Y-81087504D01*
X132834446Y-80881266D01*
X132703925Y-80694861D01*
X132703923Y-80694858D01*
X132543019Y-80533954D01*
X132356612Y-80403432D01*
X132356606Y-80403429D01*
X132298603Y-80376382D01*
X132246163Y-80330210D01*
X132227011Y-80263017D01*
X132247226Y-80196135D01*
X132298603Y-80151618D01*
X132356612Y-80124568D01*
X132543017Y-79994047D01*
X132703925Y-79833139D01*
X132720914Y-79808876D01*
X132775491Y-79765251D01*
X132822489Y-79756000D01*
X134115000Y-79756000D01*
X134182039Y-79775685D01*
X134227794Y-79828489D01*
X134239000Y-79880000D01*
X134239000Y-121743913D01*
X134219315Y-121810952D01*
X134166511Y-121856707D01*
X134113720Y-121867906D01*
X118282379Y-121704486D01*
X118215546Y-121684111D01*
X118170339Y-121630837D01*
X118161110Y-121561580D01*
X118190789Y-121498327D01*
X118240327Y-121464311D01*
X118317962Y-121435355D01*
X118317971Y-121435350D01*
X118433065Y-121349190D01*
X118433068Y-121349187D01*
X118519228Y-121234093D01*
X118519232Y-121234086D01*
X118569474Y-121099379D01*
X118569476Y-121099372D01*
X118575877Y-121039844D01*
X118575878Y-121039827D01*
X118575878Y-120392000D01*
X117659564Y-120392000D01*
X117685371Y-120351844D01*
X117725878Y-120213889D01*
X117725878Y-120070111D01*
X117685371Y-119932156D01*
X117659564Y-119892000D01*
X118575878Y-119892000D01*
X118575878Y-119888001D01*
X122858716Y-119888001D01*
X122877328Y-120100741D01*
X122877330Y-120100752D01*
X122932599Y-120307022D01*
X122932601Y-120307026D01*
X122932602Y-120307030D01*
X122972224Y-120392000D01*
X123022855Y-120500578D01*
X123145350Y-120675521D01*
X123296356Y-120826527D01*
X123296359Y-120826529D01*
X123471297Y-120949021D01*
X123471299Y-120949022D01*
X123471298Y-120949022D01*
X123535814Y-120979106D01*
X123664848Y-121039276D01*
X123664854Y-121039277D01*
X123664855Y-121039278D01*
X123714505Y-121052581D01*
X123871131Y-121094549D01*
X124023093Y-121107844D01*
X124083876Y-121113162D01*
X124083878Y-121113162D01*
X124083880Y-121113162D01*
X124137064Y-121108508D01*
X124296625Y-121094549D01*
X124502908Y-121039276D01*
X124696459Y-120949021D01*
X124871397Y-120826529D01*
X125022407Y-120675519D01*
X125144899Y-120500581D01*
X125235154Y-120307030D01*
X125290427Y-120100747D01*
X125309040Y-119888000D01*
X125290427Y-119675253D01*
X125235154Y-119468970D01*
X125144899Y-119275419D01*
X125022407Y-119100481D01*
X125022405Y-119100478D01*
X124871399Y-118949472D01*
X124696456Y-118826977D01*
X124696457Y-118826977D01*
X124567425Y-118766809D01*
X124502908Y-118736724D01*
X124502901Y-118736722D01*
X124497814Y-118734870D01*
X124498587Y-118732746D01*
X124447183Y-118701424D01*
X124416644Y-118638581D01*
X124424928Y-118569204D01*
X124469406Y-118515320D01*
X124498193Y-118502172D01*
X124497814Y-118501130D01*
X124502891Y-118499280D01*
X124502908Y-118499276D01*
X124696459Y-118409021D01*
X124871397Y-118286529D01*
X125022407Y-118135519D01*
X125144899Y-117960581D01*
X125235154Y-117767030D01*
X125290427Y-117560747D01*
X125309040Y-117348000D01*
X125290427Y-117135253D01*
X125235154Y-116928970D01*
X125144899Y-116735419D01*
X125024525Y-116563506D01*
X125022405Y-116560478D01*
X124871399Y-116409472D01*
X124696456Y-116286977D01*
X124696457Y-116286977D01*
X124567425Y-116226809D01*
X124502908Y-116196724D01*
X124502901Y-116196722D01*
X124497814Y-116194870D01*
X124498587Y-116192746D01*
X124447183Y-116161424D01*
X124416644Y-116098581D01*
X124424928Y-116029204D01*
X124469406Y-115975320D01*
X124498193Y-115962172D01*
X124497814Y-115961130D01*
X124502891Y-115959280D01*
X124502908Y-115959276D01*
X124696459Y-115869021D01*
X124871397Y-115746529D01*
X125022407Y-115595519D01*
X125144899Y-115420581D01*
X125235154Y-115227030D01*
X125290427Y-115020747D01*
X125309040Y-114808000D01*
X125290427Y-114595253D01*
X125235154Y-114388970D01*
X125144899Y-114195419D01*
X125022407Y-114020481D01*
X125022405Y-114020478D01*
X124871399Y-113869472D01*
X124696456Y-113746977D01*
X124696457Y-113746977D01*
X124567425Y-113686809D01*
X124502908Y-113656724D01*
X124502904Y-113656723D01*
X124502900Y-113656721D01*
X124296630Y-113601452D01*
X124296626Y-113601451D01*
X124296625Y-113601451D01*
X124296624Y-113601450D01*
X124296619Y-113601450D01*
X124083880Y-113582838D01*
X124083876Y-113582838D01*
X123871136Y-113601450D01*
X123871125Y-113601452D01*
X123664855Y-113656721D01*
X123664846Y-113656725D01*
X123471299Y-113746977D01*
X123296356Y-113869472D01*
X123145350Y-114020478D01*
X123022855Y-114195421D01*
X122932603Y-114388968D01*
X122932599Y-114388977D01*
X122877330Y-114595247D01*
X122877328Y-114595258D01*
X122858716Y-114807998D01*
X122858716Y-114808001D01*
X122877328Y-115020741D01*
X122877330Y-115020752D01*
X122932599Y-115227022D01*
X122932601Y-115227026D01*
X122932602Y-115227030D01*
X122975049Y-115318058D01*
X123022855Y-115420578D01*
X123145350Y-115595521D01*
X123296356Y-115746527D01*
X123296359Y-115746529D01*
X123471297Y-115869021D01*
X123471299Y-115869022D01*
X123471298Y-115869022D01*
X123535814Y-115899106D01*
X123664848Y-115959276D01*
X123664861Y-115959279D01*
X123669942Y-115961130D01*
X123669170Y-115963250D01*
X123720588Y-115994594D01*
X123751115Y-116057442D01*
X123742817Y-116126817D01*
X123698330Y-116180693D01*
X123669563Y-116193830D01*
X123669942Y-116194870D01*
X123664850Y-116196723D01*
X123664848Y-116196724D01*
X123664846Y-116196725D01*
X123471299Y-116286977D01*
X123296356Y-116409472D01*
X123145350Y-116560478D01*
X123022855Y-116735421D01*
X122932603Y-116928968D01*
X122932599Y-116928977D01*
X122877330Y-117135247D01*
X122877328Y-117135258D01*
X122858716Y-117347998D01*
X122858716Y-117348001D01*
X122877328Y-117560741D01*
X122877330Y-117560752D01*
X122932599Y-117767022D01*
X122932601Y-117767026D01*
X122932602Y-117767030D01*
X122975049Y-117858058D01*
X123022855Y-117960578D01*
X123145350Y-118135521D01*
X123296356Y-118286527D01*
X123296359Y-118286529D01*
X123471297Y-118409021D01*
X123471299Y-118409022D01*
X123471298Y-118409022D01*
X123535814Y-118439106D01*
X123664848Y-118499276D01*
X123664861Y-118499279D01*
X123669942Y-118501130D01*
X123669170Y-118503250D01*
X123720588Y-118534594D01*
X123751115Y-118597442D01*
X123742817Y-118666817D01*
X123698330Y-118720693D01*
X123669563Y-118733830D01*
X123669942Y-118734870D01*
X123664850Y-118736723D01*
X123664848Y-118736724D01*
X123664846Y-118736725D01*
X123471299Y-118826977D01*
X123296356Y-118949472D01*
X123145350Y-119100478D01*
X123022855Y-119275421D01*
X122932603Y-119468968D01*
X122932599Y-119468977D01*
X122877330Y-119675247D01*
X122877328Y-119675258D01*
X122858716Y-119887998D01*
X122858716Y-119888001D01*
X118575878Y-119888001D01*
X118575878Y-119244172D01*
X118575877Y-119244155D01*
X118569476Y-119184627D01*
X118569474Y-119184620D01*
X118519232Y-119049913D01*
X118519228Y-119049906D01*
X118433068Y-118934812D01*
X118433065Y-118934809D01*
X118317971Y-118848649D01*
X118317966Y-118848646D01*
X118186406Y-118799577D01*
X118130473Y-118757705D01*
X118106056Y-118692241D01*
X118120908Y-118623968D01*
X118142053Y-118595720D01*
X118264373Y-118473401D01*
X118399913Y-118279830D01*
X118499781Y-118065663D01*
X118560941Y-117837408D01*
X118581537Y-117602000D01*
X118560941Y-117366592D01*
X118499781Y-117138337D01*
X118399913Y-116924171D01*
X118267750Y-116735421D01*
X118264372Y-116730597D01*
X118097280Y-116563506D01*
X118097273Y-116563501D01*
X117903712Y-116427967D01*
X117903708Y-116427965D01*
X117864050Y-116409472D01*
X117689541Y-116328097D01*
X117689537Y-116328096D01*
X117689533Y-116328094D01*
X117461291Y-116266938D01*
X117461281Y-116266936D01*
X117225879Y-116246341D01*
X117225877Y-116246341D01*
X116990474Y-116266936D01*
X116990464Y-116266938D01*
X116762222Y-116328094D01*
X116762213Y-116328098D01*
X116548049Y-116427964D01*
X116548047Y-116427965D01*
X116354475Y-116563505D01*
X116187383Y-116730597D01*
X116051843Y-116924169D01*
X116051842Y-116924171D01*
X115951976Y-117138335D01*
X115951972Y-117138344D01*
X115890816Y-117366586D01*
X115890814Y-117366596D01*
X115870219Y-117601999D01*
X115870219Y-117602000D01*
X115890814Y-117837403D01*
X115890816Y-117837413D01*
X115951972Y-118065655D01*
X115951974Y-118065659D01*
X115951975Y-118065663D01*
X116051843Y-118279830D01*
X116051845Y-118279834D01*
X116142304Y-118409022D01*
X116187379Y-118473396D01*
X116187384Y-118473402D01*
X116309696Y-118595714D01*
X116343181Y-118657037D01*
X116338197Y-118726729D01*
X116296325Y-118782662D01*
X116265349Y-118799577D01*
X116133790Y-118848646D01*
X116133784Y-118848649D01*
X116018690Y-118934809D01*
X116018687Y-118934812D01*
X115932527Y-119049906D01*
X115932523Y-119049913D01*
X115882281Y-119184620D01*
X115882279Y-119184627D01*
X115875878Y-119244155D01*
X115875878Y-119892000D01*
X116792192Y-119892000D01*
X116766385Y-119932156D01*
X116725878Y-120070111D01*
X116725878Y-120213889D01*
X116766385Y-120351844D01*
X116792192Y-120392000D01*
X115875878Y-120392000D01*
X115875878Y-121039844D01*
X115882279Y-121099372D01*
X115882281Y-121099379D01*
X115932523Y-121234086D01*
X115932527Y-121234093D01*
X116018687Y-121349187D01*
X116018690Y-121349190D01*
X116133784Y-121435350D01*
X116133790Y-121435354D01*
X116151209Y-121441850D01*
X116207144Y-121483719D01*
X116231563Y-121549183D01*
X116216713Y-121617456D01*
X116167309Y-121666863D01*
X116106599Y-121682026D01*
X114676720Y-121667266D01*
X114609887Y-121646891D01*
X114564680Y-121593617D01*
X114554000Y-121543273D01*
X114554000Y-106680000D01*
X115870219Y-106680000D01*
X115890814Y-106915403D01*
X115890816Y-106915413D01*
X115951972Y-107143655D01*
X115951974Y-107143659D01*
X115951975Y-107143663D01*
X115987147Y-107219089D01*
X116051843Y-107357830D01*
X116051845Y-107357834D01*
X116146204Y-107492591D01*
X116187379Y-107551396D01*
X116187384Y-107551402D01*
X116309696Y-107673714D01*
X116343181Y-107735037D01*
X116338197Y-107804729D01*
X116296325Y-107860662D01*
X116265349Y-107877577D01*
X116133790Y-107926646D01*
X116133784Y-107926649D01*
X116018690Y-108012809D01*
X116018687Y-108012812D01*
X115932527Y-108127906D01*
X115932523Y-108127913D01*
X115882281Y-108262620D01*
X115882279Y-108262627D01*
X115875878Y-108322155D01*
X115875878Y-108970000D01*
X116792192Y-108970000D01*
X116766385Y-109010156D01*
X116725878Y-109148111D01*
X116725878Y-109291889D01*
X116766385Y-109429844D01*
X116792192Y-109470000D01*
X115875878Y-109470000D01*
X115875878Y-110117844D01*
X115882279Y-110177372D01*
X115882281Y-110177379D01*
X115932523Y-110312086D01*
X115932527Y-110312093D01*
X116018687Y-110427187D01*
X116018690Y-110427190D01*
X116133784Y-110513350D01*
X116133791Y-110513354D01*
X116268498Y-110563596D01*
X116268505Y-110563598D01*
X116328033Y-110569999D01*
X116328050Y-110570000D01*
X116975878Y-110570000D01*
X116975878Y-109655501D01*
X117083563Y-109704680D01*
X117190115Y-109720000D01*
X117261641Y-109720000D01*
X117368193Y-109704680D01*
X117475878Y-109655501D01*
X117475878Y-110570000D01*
X118123706Y-110570000D01*
X118123722Y-110569999D01*
X118183250Y-110563598D01*
X118183257Y-110563596D01*
X118317964Y-110513354D01*
X118317971Y-110513350D01*
X118433065Y-110427190D01*
X118433068Y-110427187D01*
X118519228Y-110312093D01*
X118519232Y-110312086D01*
X118569474Y-110177379D01*
X118569476Y-110177372D01*
X118575877Y-110117844D01*
X118575878Y-110117827D01*
X118575878Y-109470000D01*
X117659564Y-109470000D01*
X117685371Y-109429844D01*
X117725878Y-109291889D01*
X117725878Y-109148111D01*
X117685371Y-109010156D01*
X117660574Y-108971571D01*
X122858716Y-108971571D01*
X122877328Y-109184311D01*
X122877330Y-109184322D01*
X122932599Y-109390592D01*
X122932601Y-109390596D01*
X122932602Y-109390600D01*
X122950902Y-109429844D01*
X123022855Y-109584148D01*
X123145350Y-109759091D01*
X123296356Y-109910097D01*
X123311209Y-109920497D01*
X123471297Y-110032591D01*
X123471299Y-110032592D01*
X123471298Y-110032592D01*
X123535814Y-110062676D01*
X123664848Y-110122846D01*
X123871131Y-110178119D01*
X124023093Y-110191414D01*
X124083876Y-110196732D01*
X124083878Y-110196732D01*
X124083880Y-110196732D01*
X124137064Y-110192078D01*
X124296625Y-110178119D01*
X124502908Y-110122846D01*
X124696459Y-110032591D01*
X124871397Y-109910099D01*
X125022407Y-109759089D01*
X125144899Y-109584151D01*
X125235154Y-109390600D01*
X125290427Y-109184317D01*
X125309040Y-108971570D01*
X125290427Y-108758823D01*
X125235154Y-108552540D01*
X125144899Y-108358989D01*
X125022407Y-108184051D01*
X125022405Y-108184048D01*
X124871399Y-108033042D01*
X124696456Y-107910547D01*
X124696457Y-107910547D01*
X124567425Y-107850379D01*
X124502908Y-107820294D01*
X124502901Y-107820292D01*
X124497814Y-107818440D01*
X124498587Y-107816316D01*
X124447183Y-107784994D01*
X124416644Y-107722151D01*
X124424928Y-107652774D01*
X124469406Y-107598890D01*
X124498193Y-107585742D01*
X124497814Y-107584700D01*
X124502891Y-107582850D01*
X124502908Y-107582846D01*
X124696459Y-107492591D01*
X124871397Y-107370099D01*
X125022407Y-107219089D01*
X125144899Y-107044151D01*
X125235154Y-106850600D01*
X125290427Y-106644317D01*
X125309040Y-106431570D01*
X125290427Y-106218823D01*
X125235154Y-106012540D01*
X125144899Y-105818989D01*
X125022407Y-105644051D01*
X125022405Y-105644048D01*
X124871399Y-105493042D01*
X124696456Y-105370547D01*
X124696457Y-105370547D01*
X124567425Y-105310379D01*
X124502908Y-105280294D01*
X124502901Y-105280292D01*
X124497814Y-105278440D01*
X124498587Y-105276316D01*
X124447183Y-105244994D01*
X124416644Y-105182151D01*
X124424928Y-105112774D01*
X124469406Y-105058890D01*
X124498193Y-105045742D01*
X124497814Y-105044700D01*
X124502891Y-105042850D01*
X124502908Y-105042846D01*
X124696459Y-104952591D01*
X124871397Y-104830099D01*
X125022407Y-104679089D01*
X125144899Y-104504151D01*
X125235154Y-104310600D01*
X125290427Y-104104317D01*
X125309040Y-103891570D01*
X125290427Y-103678823D01*
X125235154Y-103472540D01*
X125144899Y-103278989D01*
X125022407Y-103104051D01*
X125022405Y-103104048D01*
X124871399Y-102953042D01*
X124696456Y-102830547D01*
X124696457Y-102830547D01*
X124567425Y-102770379D01*
X124502908Y-102740294D01*
X124502904Y-102740293D01*
X124502900Y-102740291D01*
X124296630Y-102685022D01*
X124296626Y-102685021D01*
X124296625Y-102685021D01*
X124296624Y-102685020D01*
X124296619Y-102685020D01*
X124083880Y-102666408D01*
X124083876Y-102666408D01*
X123871136Y-102685020D01*
X123871125Y-102685022D01*
X123664855Y-102740291D01*
X123664846Y-102740295D01*
X123471299Y-102830547D01*
X123296356Y-102953042D01*
X123145350Y-103104048D01*
X123022855Y-103278991D01*
X122932603Y-103472538D01*
X122932599Y-103472547D01*
X122877330Y-103678817D01*
X122877328Y-103678828D01*
X122858716Y-103891568D01*
X122858716Y-103891571D01*
X122877328Y-104104311D01*
X122877330Y-104104322D01*
X122932599Y-104310592D01*
X122932601Y-104310596D01*
X122932602Y-104310600D01*
X122971491Y-104393998D01*
X123022855Y-104504148D01*
X123145350Y-104679091D01*
X123296356Y-104830097D01*
X123311209Y-104840497D01*
X123471297Y-104952591D01*
X123471299Y-104952592D01*
X123471298Y-104952592D01*
X123535814Y-104982676D01*
X123664848Y-105042846D01*
X123664861Y-105042849D01*
X123669942Y-105044700D01*
X123669170Y-105046820D01*
X123720588Y-105078164D01*
X123751115Y-105141012D01*
X123742817Y-105210387D01*
X123698330Y-105264263D01*
X123669563Y-105277400D01*
X123669942Y-105278440D01*
X123664850Y-105280293D01*
X123664848Y-105280294D01*
X123664846Y-105280295D01*
X123471299Y-105370547D01*
X123296356Y-105493042D01*
X123145350Y-105644048D01*
X123022855Y-105818991D01*
X122932603Y-106012538D01*
X122932599Y-106012547D01*
X122877330Y-106218817D01*
X122877328Y-106218828D01*
X122858716Y-106431568D01*
X122858716Y-106431571D01*
X122877328Y-106644311D01*
X122877330Y-106644322D01*
X122932599Y-106850592D01*
X122932601Y-106850596D01*
X122932602Y-106850600D01*
X122962823Y-106915408D01*
X123022855Y-107044148D01*
X123145350Y-107219091D01*
X123296356Y-107370097D01*
X123311209Y-107380497D01*
X123471297Y-107492591D01*
X123471299Y-107492592D01*
X123471298Y-107492592D01*
X123535814Y-107522676D01*
X123664848Y-107582846D01*
X123664861Y-107582849D01*
X123669942Y-107584700D01*
X123669170Y-107586820D01*
X123720588Y-107618164D01*
X123751115Y-107681012D01*
X123742817Y-107750387D01*
X123698330Y-107804263D01*
X123669563Y-107817400D01*
X123669942Y-107818440D01*
X123664850Y-107820293D01*
X123664848Y-107820294D01*
X123664846Y-107820295D01*
X123471299Y-107910547D01*
X123296356Y-108033042D01*
X123145350Y-108184048D01*
X123022855Y-108358991D01*
X122932603Y-108552538D01*
X122932599Y-108552547D01*
X122877330Y-108758817D01*
X122877328Y-108758828D01*
X122858716Y-108971568D01*
X122858716Y-108971571D01*
X117660574Y-108971571D01*
X117659564Y-108970000D01*
X118575878Y-108970000D01*
X118575878Y-108322172D01*
X118575877Y-108322155D01*
X118569476Y-108262627D01*
X118569474Y-108262620D01*
X118519232Y-108127913D01*
X118519228Y-108127906D01*
X118433068Y-108012812D01*
X118433065Y-108012809D01*
X118317971Y-107926649D01*
X118317966Y-107926646D01*
X118186406Y-107877577D01*
X118130473Y-107835705D01*
X118106056Y-107770241D01*
X118120908Y-107701968D01*
X118142053Y-107673720D01*
X118264373Y-107551401D01*
X118399913Y-107357830D01*
X118499781Y-107143663D01*
X118560941Y-106915408D01*
X118581537Y-106680000D01*
X118560941Y-106444592D01*
X118514504Y-106271285D01*
X118499783Y-106216344D01*
X118499782Y-106216343D01*
X118499781Y-106216337D01*
X118399913Y-106002171D01*
X118352148Y-105933954D01*
X118264372Y-105808597D01*
X118097280Y-105641506D01*
X118097273Y-105641501D01*
X117903712Y-105505967D01*
X117903708Y-105505965D01*
X117903706Y-105505964D01*
X117689541Y-105406097D01*
X117689537Y-105406096D01*
X117689533Y-105406094D01*
X117461291Y-105344938D01*
X117461281Y-105344936D01*
X117225879Y-105324341D01*
X117225877Y-105324341D01*
X116990474Y-105344936D01*
X116990464Y-105344938D01*
X116762222Y-105406094D01*
X116762213Y-105406098D01*
X116548049Y-105505964D01*
X116548047Y-105505965D01*
X116354475Y-105641505D01*
X116187383Y-105808597D01*
X116051843Y-106002169D01*
X116051842Y-106002171D01*
X115951976Y-106216335D01*
X115951972Y-106216344D01*
X115890816Y-106444586D01*
X115890814Y-106444596D01*
X115870219Y-106679999D01*
X115870219Y-106680000D01*
X114554000Y-106680000D01*
X114554000Y-95758000D01*
X115870219Y-95758000D01*
X115890814Y-95993403D01*
X115890816Y-95993413D01*
X115951972Y-96221655D01*
X115951974Y-96221659D01*
X115951975Y-96221663D01*
X115989745Y-96302661D01*
X116051843Y-96435830D01*
X116051845Y-96435834D01*
X116129901Y-96547308D01*
X116187379Y-96629396D01*
X116187384Y-96629402D01*
X116309696Y-96751714D01*
X116343181Y-96813037D01*
X116338197Y-96882729D01*
X116296325Y-96938662D01*
X116265349Y-96955577D01*
X116133790Y-97004646D01*
X116133784Y-97004649D01*
X116018690Y-97090809D01*
X116018687Y-97090812D01*
X115932527Y-97205906D01*
X115932523Y-97205913D01*
X115882281Y-97340620D01*
X115882279Y-97340627D01*
X115875878Y-97400155D01*
X115875878Y-98048000D01*
X116792192Y-98048000D01*
X116766385Y-98088156D01*
X116725878Y-98226111D01*
X116725878Y-98369889D01*
X116766385Y-98507844D01*
X116792192Y-98548000D01*
X115875878Y-98548000D01*
X115875878Y-99195844D01*
X115882279Y-99255372D01*
X115882281Y-99255379D01*
X115932523Y-99390086D01*
X115932527Y-99390093D01*
X116018687Y-99505187D01*
X116018690Y-99505190D01*
X116133784Y-99591350D01*
X116133791Y-99591354D01*
X116268498Y-99641596D01*
X116268505Y-99641598D01*
X116328033Y-99647999D01*
X116328050Y-99648000D01*
X116975878Y-99648000D01*
X116975878Y-98733501D01*
X117083563Y-98782680D01*
X117190115Y-98798000D01*
X117261641Y-98798000D01*
X117368193Y-98782680D01*
X117475878Y-98733501D01*
X117475878Y-99648000D01*
X118123706Y-99648000D01*
X118123722Y-99647999D01*
X118183250Y-99641598D01*
X118183257Y-99641596D01*
X118317964Y-99591354D01*
X118317971Y-99591350D01*
X118433065Y-99505190D01*
X118433068Y-99505187D01*
X118519228Y-99390093D01*
X118519232Y-99390086D01*
X118569474Y-99255379D01*
X118569476Y-99255372D01*
X118575877Y-99195844D01*
X118575878Y-99195827D01*
X118575878Y-98548000D01*
X117659564Y-98548000D01*
X117685371Y-98507844D01*
X117725878Y-98369889D01*
X117725878Y-98226111D01*
X117685371Y-98088156D01*
X117664155Y-98055143D01*
X122858716Y-98055143D01*
X122877328Y-98267883D01*
X122877330Y-98267894D01*
X122932599Y-98474164D01*
X122932601Y-98474168D01*
X122932602Y-98474172D01*
X122948304Y-98507844D01*
X123022855Y-98667720D01*
X123145350Y-98842663D01*
X123296356Y-98993669D01*
X123296359Y-98993671D01*
X123471297Y-99116163D01*
X123471299Y-99116164D01*
X123471298Y-99116164D01*
X123535814Y-99146248D01*
X123664848Y-99206418D01*
X123871131Y-99261691D01*
X124023093Y-99274986D01*
X124083876Y-99280304D01*
X124083878Y-99280304D01*
X124083880Y-99280304D01*
X124137064Y-99275650D01*
X124296625Y-99261691D01*
X124502908Y-99206418D01*
X124696459Y-99116163D01*
X124871397Y-98993671D01*
X125022407Y-98842661D01*
X125144899Y-98667723D01*
X125235154Y-98474172D01*
X125290427Y-98267889D01*
X125309040Y-98055142D01*
X125290427Y-97842395D01*
X125235154Y-97636112D01*
X125144899Y-97442561D01*
X125022407Y-97267623D01*
X125022405Y-97267620D01*
X124871399Y-97116614D01*
X124711490Y-97004646D01*
X124696459Y-96994121D01*
X124696458Y-96994120D01*
X124696456Y-96994119D01*
X124696457Y-96994119D01*
X124563316Y-96932035D01*
X124502908Y-96903866D01*
X124502901Y-96903864D01*
X124497814Y-96902012D01*
X124498587Y-96899888D01*
X124447183Y-96868566D01*
X124416644Y-96805723D01*
X124424928Y-96736346D01*
X124469406Y-96682462D01*
X124498193Y-96669314D01*
X124497814Y-96668272D01*
X124502891Y-96666422D01*
X124502908Y-96666418D01*
X124696459Y-96576163D01*
X124871397Y-96453671D01*
X125022407Y-96302661D01*
X125144899Y-96127723D01*
X125235154Y-95934172D01*
X125290427Y-95727889D01*
X125309040Y-95515142D01*
X125290427Y-95302395D01*
X125235154Y-95096112D01*
X125144899Y-94902561D01*
X125022407Y-94727623D01*
X125022405Y-94727620D01*
X124871399Y-94576614D01*
X124712710Y-94465500D01*
X124696459Y-94454121D01*
X124696458Y-94454120D01*
X124696456Y-94454119D01*
X124696457Y-94454119D01*
X124563316Y-94392035D01*
X124502908Y-94363866D01*
X124502901Y-94363864D01*
X124497814Y-94362012D01*
X124498587Y-94359888D01*
X124447183Y-94328566D01*
X124416644Y-94265723D01*
X124424928Y-94196346D01*
X124469406Y-94142462D01*
X124498193Y-94129314D01*
X124497814Y-94128272D01*
X124502891Y-94126422D01*
X124502908Y-94126418D01*
X124696459Y-94036163D01*
X124871397Y-93913671D01*
X125022407Y-93762661D01*
X125144899Y-93587723D01*
X125235154Y-93394172D01*
X125290427Y-93187889D01*
X125309040Y-92975142D01*
X125290427Y-92762395D01*
X125235154Y-92556112D01*
X125144899Y-92362561D01*
X125022407Y-92187623D01*
X125022405Y-92187620D01*
X124871399Y-92036614D01*
X124731585Y-91938716D01*
X124696459Y-91914121D01*
X124696458Y-91914120D01*
X124696456Y-91914119D01*
X124696457Y-91914119D01*
X124567425Y-91853951D01*
X124502908Y-91823866D01*
X124502904Y-91823865D01*
X124502900Y-91823863D01*
X124296630Y-91768594D01*
X124296626Y-91768593D01*
X124296625Y-91768593D01*
X124296624Y-91768592D01*
X124296619Y-91768592D01*
X124083880Y-91749980D01*
X124083876Y-91749980D01*
X123871136Y-91768592D01*
X123871125Y-91768594D01*
X123664855Y-91823863D01*
X123664846Y-91823867D01*
X123471299Y-91914119D01*
X123296356Y-92036614D01*
X123145350Y-92187620D01*
X123022855Y-92362563D01*
X122932603Y-92556110D01*
X122932599Y-92556119D01*
X122877330Y-92762389D01*
X122877328Y-92762400D01*
X122858716Y-92975140D01*
X122858716Y-92975143D01*
X122877328Y-93187883D01*
X122877330Y-93187894D01*
X122932599Y-93394164D01*
X122932601Y-93394168D01*
X122932602Y-93394172D01*
X122960227Y-93453413D01*
X123022855Y-93587720D01*
X123145350Y-93762663D01*
X123296356Y-93913669D01*
X123296359Y-93913671D01*
X123471297Y-94036163D01*
X123471299Y-94036164D01*
X123471298Y-94036164D01*
X123535814Y-94066248D01*
X123664848Y-94126418D01*
X123664861Y-94126421D01*
X123669942Y-94128272D01*
X123669170Y-94130392D01*
X123720588Y-94161736D01*
X123751115Y-94224584D01*
X123742817Y-94293959D01*
X123698330Y-94347835D01*
X123669563Y-94360972D01*
X123669942Y-94362012D01*
X123664850Y-94363865D01*
X123664848Y-94363866D01*
X123664846Y-94363867D01*
X123471299Y-94454119D01*
X123296356Y-94576614D01*
X123145350Y-94727620D01*
X123022855Y-94902563D01*
X122932603Y-95096110D01*
X122932599Y-95096119D01*
X122877330Y-95302389D01*
X122877328Y-95302400D01*
X122858716Y-95515140D01*
X122858716Y-95515143D01*
X122877328Y-95727883D01*
X122877330Y-95727894D01*
X122932599Y-95934164D01*
X122932601Y-95934168D01*
X122932602Y-95934172D01*
X122960227Y-95993413D01*
X123022855Y-96127720D01*
X123145350Y-96302663D01*
X123296356Y-96453669D01*
X123296359Y-96453671D01*
X123471297Y-96576163D01*
X123471299Y-96576164D01*
X123471298Y-96576164D01*
X123535814Y-96606248D01*
X123664848Y-96666418D01*
X123664861Y-96666421D01*
X123669942Y-96668272D01*
X123669170Y-96670392D01*
X123720588Y-96701736D01*
X123751115Y-96764584D01*
X123742817Y-96833959D01*
X123698330Y-96887835D01*
X123669563Y-96900972D01*
X123669942Y-96902012D01*
X123664850Y-96903865D01*
X123664848Y-96903866D01*
X123664846Y-96903867D01*
X123471299Y-96994119D01*
X123296356Y-97116614D01*
X123145350Y-97267620D01*
X123022855Y-97442563D01*
X122932603Y-97636110D01*
X122932599Y-97636119D01*
X122877330Y-97842389D01*
X122877328Y-97842400D01*
X122858716Y-98055140D01*
X122858716Y-98055143D01*
X117664155Y-98055143D01*
X117659564Y-98048000D01*
X118575878Y-98048000D01*
X118575878Y-97400172D01*
X118575877Y-97400155D01*
X118569476Y-97340627D01*
X118569474Y-97340620D01*
X118519232Y-97205913D01*
X118519228Y-97205906D01*
X118433068Y-97090812D01*
X118433065Y-97090809D01*
X118317971Y-97004649D01*
X118317966Y-97004646D01*
X118186406Y-96955577D01*
X118130473Y-96913705D01*
X118106056Y-96848241D01*
X118120908Y-96779968D01*
X118142053Y-96751720D01*
X118264373Y-96629401D01*
X118399913Y-96435830D01*
X118499781Y-96221663D01*
X118560941Y-95993408D01*
X118581537Y-95758000D01*
X118560941Y-95522592D01*
X118514504Y-95349285D01*
X118499783Y-95294344D01*
X118499782Y-95294343D01*
X118499781Y-95294337D01*
X118399913Y-95080171D01*
X118394990Y-95073139D01*
X118264372Y-94886597D01*
X118097280Y-94719506D01*
X118097274Y-94719501D01*
X117911720Y-94589575D01*
X117868095Y-94534998D01*
X117860901Y-94465500D01*
X117892424Y-94403145D01*
X117911720Y-94386425D01*
X117946585Y-94362012D01*
X118097279Y-94256495D01*
X118264373Y-94089401D01*
X118399913Y-93895830D01*
X118499781Y-93681663D01*
X118560941Y-93453408D01*
X118581537Y-93218000D01*
X118560941Y-92982592D01*
X118514504Y-92809285D01*
X118499783Y-92754344D01*
X118499782Y-92754343D01*
X118499781Y-92754337D01*
X118399913Y-92540171D01*
X118394990Y-92533139D01*
X118264372Y-92346597D01*
X118097280Y-92179506D01*
X118097273Y-92179501D01*
X117903712Y-92043967D01*
X117903708Y-92043965D01*
X117887942Y-92036613D01*
X117689541Y-91944097D01*
X117689537Y-91944096D01*
X117689533Y-91944094D01*
X117461291Y-91882938D01*
X117461281Y-91882936D01*
X117225879Y-91862341D01*
X117225877Y-91862341D01*
X116990474Y-91882936D01*
X116990464Y-91882938D01*
X116762222Y-91944094D01*
X116762213Y-91944098D01*
X116548049Y-92043964D01*
X116548047Y-92043965D01*
X116354475Y-92179505D01*
X116187383Y-92346597D01*
X116051843Y-92540169D01*
X116051842Y-92540171D01*
X115951976Y-92754335D01*
X115951972Y-92754344D01*
X115890816Y-92982586D01*
X115890814Y-92982596D01*
X115870219Y-93217999D01*
X115870219Y-93218000D01*
X115890814Y-93453403D01*
X115890816Y-93453413D01*
X115951972Y-93681655D01*
X115951974Y-93681659D01*
X115951975Y-93681663D01*
X115989745Y-93762661D01*
X116051843Y-93895830D01*
X116051845Y-93895834D01*
X116187379Y-94089395D01*
X116187384Y-94089402D01*
X116354475Y-94256493D01*
X116354481Y-94256498D01*
X116540036Y-94386425D01*
X116583661Y-94441002D01*
X116590855Y-94510500D01*
X116559332Y-94572855D01*
X116540036Y-94589575D01*
X116354475Y-94719505D01*
X116187383Y-94886597D01*
X116051843Y-95080169D01*
X116051842Y-95080171D01*
X115951976Y-95294335D01*
X115951972Y-95294344D01*
X115890816Y-95522586D01*
X115890814Y-95522596D01*
X115870219Y-95757999D01*
X115870219Y-95758000D01*
X114554000Y-95758000D01*
X114554000Y-84582000D01*
X115870219Y-84582000D01*
X115890814Y-84817403D01*
X115890816Y-84817413D01*
X115951972Y-85045655D01*
X115951974Y-85045659D01*
X115951975Y-85045663D01*
X116038558Y-85231341D01*
X116051843Y-85259830D01*
X116051845Y-85259834D01*
X116142304Y-85389022D01*
X116187379Y-85453396D01*
X116187384Y-85453402D01*
X116309696Y-85575714D01*
X116343181Y-85637037D01*
X116338197Y-85706729D01*
X116296325Y-85762662D01*
X116265349Y-85779577D01*
X116133790Y-85828646D01*
X116133784Y-85828649D01*
X116018690Y-85914809D01*
X116018687Y-85914812D01*
X115932527Y-86029906D01*
X115932523Y-86029913D01*
X115882281Y-86164620D01*
X115882279Y-86164627D01*
X115875878Y-86224155D01*
X115875878Y-86872000D01*
X116792192Y-86872000D01*
X116766385Y-86912156D01*
X116725878Y-87050111D01*
X116725878Y-87193889D01*
X116766385Y-87331844D01*
X116792192Y-87372000D01*
X115875878Y-87372000D01*
X115875878Y-88019844D01*
X115882279Y-88079372D01*
X115882281Y-88079379D01*
X115932523Y-88214086D01*
X115932527Y-88214093D01*
X116018687Y-88329187D01*
X116018690Y-88329190D01*
X116133784Y-88415350D01*
X116133791Y-88415354D01*
X116268498Y-88465596D01*
X116268505Y-88465598D01*
X116328033Y-88471999D01*
X116328050Y-88472000D01*
X116975878Y-88472000D01*
X116975878Y-87557501D01*
X117083563Y-87606680D01*
X117190115Y-87622000D01*
X117261641Y-87622000D01*
X117368193Y-87606680D01*
X117475878Y-87557501D01*
X117475878Y-88472000D01*
X118123706Y-88472000D01*
X118123722Y-88471999D01*
X118183250Y-88465598D01*
X118183257Y-88465596D01*
X118317964Y-88415354D01*
X118317971Y-88415350D01*
X118433065Y-88329190D01*
X118433068Y-88329187D01*
X118519228Y-88214093D01*
X118519232Y-88214086D01*
X118569474Y-88079379D01*
X118569476Y-88079372D01*
X118575877Y-88019844D01*
X118575878Y-88019827D01*
X118575878Y-87372000D01*
X117659564Y-87372000D01*
X117685371Y-87331844D01*
X117725878Y-87193889D01*
X117725878Y-87050111D01*
X117685371Y-86912156D01*
X117659564Y-86872000D01*
X118575878Y-86872000D01*
X118575878Y-86868001D01*
X122858716Y-86868001D01*
X122877328Y-87080741D01*
X122877330Y-87080752D01*
X122932599Y-87287022D01*
X122932601Y-87287026D01*
X122932602Y-87287030D01*
X122972224Y-87372000D01*
X123022855Y-87480578D01*
X123145350Y-87655521D01*
X123296356Y-87806527D01*
X123296359Y-87806529D01*
X123471297Y-87929021D01*
X123471299Y-87929022D01*
X123471298Y-87929022D01*
X123535814Y-87959106D01*
X123664848Y-88019276D01*
X123664854Y-88019277D01*
X123664855Y-88019278D01*
X123714505Y-88032581D01*
X123871131Y-88074549D01*
X124023093Y-88087844D01*
X124083876Y-88093162D01*
X124083878Y-88093162D01*
X124083880Y-88093162D01*
X124137064Y-88088508D01*
X124296625Y-88074549D01*
X124502908Y-88019276D01*
X124696459Y-87929021D01*
X124871397Y-87806529D01*
X125022407Y-87655519D01*
X125144899Y-87480581D01*
X125235154Y-87287030D01*
X125290427Y-87080747D01*
X125309040Y-86868000D01*
X125290427Y-86655253D01*
X125235154Y-86448970D01*
X125144899Y-86255419D01*
X125022407Y-86080481D01*
X125022405Y-86080478D01*
X124871399Y-85929472D01*
X124696456Y-85806977D01*
X124696457Y-85806977D01*
X124567425Y-85746809D01*
X124502908Y-85716724D01*
X124502901Y-85716722D01*
X124497814Y-85714870D01*
X124498587Y-85712746D01*
X124447183Y-85681424D01*
X124416644Y-85618581D01*
X124424928Y-85549204D01*
X124469406Y-85495320D01*
X124498193Y-85482172D01*
X124497814Y-85481130D01*
X124502891Y-85479280D01*
X124502908Y-85479276D01*
X124696459Y-85389021D01*
X124871397Y-85266529D01*
X125022407Y-85115519D01*
X125144899Y-84940581D01*
X125235154Y-84747030D01*
X125290427Y-84540747D01*
X125309040Y-84328000D01*
X125290427Y-84115253D01*
X125235154Y-83908970D01*
X125144899Y-83715419D01*
X125024525Y-83543506D01*
X125022405Y-83540478D01*
X124871399Y-83389472D01*
X124696456Y-83266977D01*
X124696457Y-83266977D01*
X124567425Y-83206809D01*
X124502908Y-83176724D01*
X124502901Y-83176722D01*
X124497814Y-83174870D01*
X124498587Y-83172746D01*
X124447183Y-83141424D01*
X124416644Y-83078581D01*
X124424928Y-83009204D01*
X124469406Y-82955320D01*
X124498193Y-82942172D01*
X124497814Y-82941130D01*
X124502891Y-82939280D01*
X124502908Y-82939276D01*
X124696459Y-82849021D01*
X124871397Y-82726529D01*
X125022407Y-82575519D01*
X125144899Y-82400581D01*
X125235154Y-82207030D01*
X125290427Y-82000747D01*
X125309040Y-81788000D01*
X125290427Y-81575253D01*
X125235154Y-81368970D01*
X125144899Y-81175419D01*
X125024525Y-81003506D01*
X125022405Y-81000478D01*
X124871399Y-80849472D01*
X124696456Y-80726977D01*
X124696457Y-80726977D01*
X124567425Y-80666809D01*
X124502908Y-80636724D01*
X124502904Y-80636723D01*
X124502900Y-80636721D01*
X124296630Y-80581452D01*
X124296626Y-80581451D01*
X124296625Y-80581451D01*
X124296624Y-80581450D01*
X124296619Y-80581450D01*
X124083880Y-80562838D01*
X124083876Y-80562838D01*
X123871136Y-80581450D01*
X123871125Y-80581452D01*
X123664855Y-80636721D01*
X123664846Y-80636725D01*
X123471299Y-80726977D01*
X123296356Y-80849472D01*
X123145350Y-81000478D01*
X123022855Y-81175421D01*
X122932603Y-81368968D01*
X122932599Y-81368977D01*
X122877330Y-81575247D01*
X122877328Y-81575258D01*
X122858716Y-81787998D01*
X122858716Y-81788001D01*
X122877328Y-82000741D01*
X122877330Y-82000752D01*
X122932599Y-82207022D01*
X122932601Y-82207026D01*
X122932602Y-82207030D01*
X122975049Y-82298058D01*
X123022855Y-82400578D01*
X123145350Y-82575521D01*
X123296356Y-82726527D01*
X123296359Y-82726529D01*
X123471297Y-82849021D01*
X123471299Y-82849022D01*
X123471298Y-82849022D01*
X123517324Y-82870484D01*
X123664848Y-82939276D01*
X123664861Y-82939279D01*
X123669942Y-82941130D01*
X123669170Y-82943250D01*
X123720588Y-82974594D01*
X123751115Y-83037442D01*
X123742817Y-83106817D01*
X123698330Y-83160693D01*
X123669563Y-83173830D01*
X123669942Y-83174870D01*
X123664850Y-83176723D01*
X123664848Y-83176724D01*
X123664846Y-83176725D01*
X123471299Y-83266977D01*
X123296356Y-83389472D01*
X123145350Y-83540478D01*
X123022855Y-83715421D01*
X122932603Y-83908968D01*
X122932599Y-83908977D01*
X122877330Y-84115247D01*
X122877328Y-84115258D01*
X122858716Y-84327998D01*
X122858716Y-84328001D01*
X122877328Y-84540741D01*
X122877330Y-84540752D01*
X122932599Y-84747022D01*
X122932601Y-84747026D01*
X122932602Y-84747030D01*
X122975049Y-84838058D01*
X123022855Y-84940578D01*
X123145350Y-85115521D01*
X123296356Y-85266527D01*
X123296359Y-85266529D01*
X123471297Y-85389021D01*
X123471299Y-85389022D01*
X123471298Y-85389022D01*
X123519694Y-85411589D01*
X123664848Y-85479276D01*
X123664861Y-85479279D01*
X123669942Y-85481130D01*
X123669170Y-85483250D01*
X123720588Y-85514594D01*
X123751115Y-85577442D01*
X123742817Y-85646817D01*
X123698330Y-85700693D01*
X123669563Y-85713830D01*
X123669942Y-85714870D01*
X123664850Y-85716723D01*
X123664848Y-85716724D01*
X123664846Y-85716725D01*
X123471299Y-85806977D01*
X123296356Y-85929472D01*
X123145350Y-86080478D01*
X123022855Y-86255421D01*
X122932603Y-86448968D01*
X122932599Y-86448977D01*
X122877330Y-86655247D01*
X122877328Y-86655258D01*
X122858716Y-86867998D01*
X122858716Y-86868001D01*
X118575878Y-86868001D01*
X118575878Y-86224172D01*
X118575877Y-86224155D01*
X118569476Y-86164627D01*
X118569474Y-86164620D01*
X118519232Y-86029913D01*
X118519228Y-86029906D01*
X118433068Y-85914812D01*
X118433065Y-85914809D01*
X118317971Y-85828649D01*
X118317966Y-85828646D01*
X118186406Y-85779577D01*
X118130473Y-85737705D01*
X118106056Y-85672241D01*
X118120908Y-85603968D01*
X118142053Y-85575720D01*
X118264373Y-85453401D01*
X118399913Y-85259830D01*
X118499781Y-85045663D01*
X118560941Y-84817408D01*
X118581537Y-84582000D01*
X118560941Y-84346592D01*
X118499781Y-84118337D01*
X118399913Y-83904171D01*
X118289413Y-83746359D01*
X118264372Y-83710597D01*
X118097280Y-83543506D01*
X118097274Y-83543501D01*
X117911720Y-83413575D01*
X117868095Y-83358998D01*
X117860901Y-83289500D01*
X117892424Y-83227145D01*
X117911720Y-83210425D01*
X118010263Y-83141424D01*
X118097279Y-83080495D01*
X118264373Y-82913401D01*
X118399913Y-82719830D01*
X118499781Y-82505663D01*
X118560941Y-82277408D01*
X118581537Y-82042000D01*
X118560941Y-81806592D01*
X118499781Y-81578337D01*
X118399913Y-81364171D01*
X118360098Y-81307308D01*
X118264372Y-81170597D01*
X118097280Y-81003506D01*
X118097273Y-81003501D01*
X117903712Y-80867967D01*
X117903708Y-80867965D01*
X117864050Y-80849472D01*
X117689541Y-80768097D01*
X117689537Y-80768096D01*
X117689533Y-80768094D01*
X117461291Y-80706938D01*
X117461281Y-80706936D01*
X117225879Y-80686341D01*
X117225877Y-80686341D01*
X116990474Y-80706936D01*
X116990464Y-80706938D01*
X116762222Y-80768094D01*
X116762213Y-80768098D01*
X116548049Y-80867964D01*
X116548047Y-80867965D01*
X116354475Y-81003505D01*
X116187383Y-81170597D01*
X116051843Y-81364169D01*
X116051842Y-81364171D01*
X115951976Y-81578335D01*
X115951972Y-81578344D01*
X115890816Y-81806586D01*
X115890814Y-81806596D01*
X115870219Y-82041999D01*
X115870219Y-82042000D01*
X115890814Y-82277403D01*
X115890816Y-82277413D01*
X115951972Y-82505655D01*
X115951974Y-82505659D01*
X115951975Y-82505663D01*
X116026074Y-82664568D01*
X116051843Y-82719830D01*
X116051845Y-82719834D01*
X116187379Y-82913395D01*
X116187384Y-82913402D01*
X116354475Y-83080493D01*
X116354481Y-83080498D01*
X116540036Y-83210425D01*
X116583661Y-83265002D01*
X116590855Y-83334500D01*
X116559332Y-83396855D01*
X116540036Y-83413575D01*
X116354475Y-83543505D01*
X116187383Y-83710597D01*
X116051843Y-83904169D01*
X116051842Y-83904171D01*
X115951976Y-84118335D01*
X115951972Y-84118344D01*
X115890816Y-84346586D01*
X115890814Y-84346596D01*
X115870219Y-84581999D01*
X115870219Y-84582000D01*
X114554000Y-84582000D01*
X114554000Y-79880000D01*
X114573685Y-79812961D01*
X114626489Y-79767206D01*
X114678000Y-79756000D01*
X130585267Y-79756000D01*
X130652306Y-79775685D01*
G37*
%TD.AperFunction*%
%TD*%
%TA.AperFunction,Conductor*%
%TO.N,GND*%
G36*
X165608713Y-112687148D02*
G01*
X165666237Y-112800045D01*
X165755833Y-112889641D01*
X165868730Y-112947165D01*
X165949477Y-112959953D01*
X165268404Y-113641025D01*
X165341391Y-113692132D01*
X165341393Y-113692133D01*
X165356851Y-113699341D01*
X165409291Y-113745513D01*
X165428444Y-113812706D01*
X165408229Y-113879587D01*
X165356857Y-113924104D01*
X165341148Y-113931429D01*
X165341143Y-113931432D01*
X165154736Y-114061954D01*
X164993832Y-114222858D01*
X164952453Y-114281955D01*
X164897877Y-114325580D01*
X164828378Y-114332774D01*
X164766023Y-114301251D01*
X164749303Y-114281955D01*
X164707923Y-114222858D01*
X164547019Y-114061954D01*
X164360612Y-113931432D01*
X164360606Y-113931429D01*
X164302603Y-113904382D01*
X164250163Y-113858210D01*
X164231011Y-113791017D01*
X164251226Y-113724135D01*
X164302603Y-113679618D01*
X164360612Y-113652568D01*
X164547017Y-113522047D01*
X164707925Y-113361139D01*
X164735603Y-113321609D01*
X164790179Y-113277984D01*
X164859677Y-113270789D01*
X164888040Y-113285126D01*
X164914852Y-113287472D01*
X165595924Y-112606400D01*
X165608713Y-112687148D01*
G37*
%TD.AperFunction*%
%TA.AperFunction,Conductor*%
G36*
X157760861Y-86125685D02*
G01*
X157806616Y-86178489D01*
X157816560Y-86247647D01*
X157787535Y-86311203D01*
X157764947Y-86331574D01*
X157756473Y-86337507D01*
X157589383Y-86504597D01*
X157453843Y-86698169D01*
X157453842Y-86698171D01*
X157353976Y-86912335D01*
X157353972Y-86912344D01*
X157292816Y-87140586D01*
X157292814Y-87140596D01*
X157272219Y-87375999D01*
X157272219Y-87376000D01*
X157292814Y-87611403D01*
X157292816Y-87611413D01*
X157353972Y-87839655D01*
X157353974Y-87839659D01*
X157353975Y-87839663D01*
X157437033Y-88017781D01*
X157453843Y-88053830D01*
X157453845Y-88053834D01*
X157561254Y-88207229D01*
X157589383Y-88247401D01*
X157756477Y-88414495D01*
X157837694Y-88471364D01*
X157950043Y-88550032D01*
X157950045Y-88550033D01*
X157950048Y-88550035D01*
X158164215Y-88649903D01*
X158392470Y-88711063D01*
X158568912Y-88726500D01*
X158627877Y-88731659D01*
X158627878Y-88731659D01*
X158627879Y-88731659D01*
X158686844Y-88726500D01*
X158863286Y-88711063D01*
X159091541Y-88649903D01*
X159305708Y-88550035D01*
X159499279Y-88414495D01*
X159666373Y-88247401D01*
X159796608Y-88061405D01*
X159851185Y-88017781D01*
X159920683Y-88010587D01*
X159983038Y-88042110D01*
X159999757Y-88061405D01*
X160129768Y-88247078D01*
X160296795Y-88414105D01*
X160490299Y-88549600D01*
X160704385Y-88649429D01*
X160704394Y-88649433D01*
X160917878Y-88706634D01*
X160917878Y-87811501D01*
X161025563Y-87860680D01*
X161132115Y-87876000D01*
X161203641Y-87876000D01*
X161310193Y-87860680D01*
X161417878Y-87811501D01*
X161417878Y-88706633D01*
X161631361Y-88649433D01*
X161631370Y-88649429D01*
X161845456Y-88549600D01*
X162038956Y-88414108D01*
X162161011Y-88292053D01*
X162222334Y-88258568D01*
X162292026Y-88263552D01*
X162347960Y-88305423D01*
X162364875Y-88336401D01*
X162414080Y-88468328D01*
X162414084Y-88468335D01*
X162500330Y-88583544D01*
X162500333Y-88583547D01*
X162615542Y-88669793D01*
X162615549Y-88669797D01*
X162750395Y-88720091D01*
X162750394Y-88720091D01*
X162757322Y-88720835D01*
X162810005Y-88726500D01*
X164605750Y-88726499D01*
X164665361Y-88720091D01*
X164800209Y-88669796D01*
X164915424Y-88583546D01*
X165001674Y-88468331D01*
X165051969Y-88333483D01*
X165058378Y-88273873D01*
X165058377Y-86478128D01*
X165051969Y-86418517D01*
X165051969Y-86418516D01*
X164998575Y-86275359D01*
X165001517Y-86274261D01*
X164989968Y-86221141D01*
X165014392Y-86155679D01*
X165070330Y-86113814D01*
X165113651Y-86106000D01*
X175629201Y-86106000D01*
X175696240Y-86125685D01*
X175741995Y-86178489D01*
X175751939Y-86247647D01*
X175743762Y-86277453D01*
X175711822Y-86354561D01*
X175711818Y-86354573D01*
X175688634Y-86451138D01*
X175685993Y-86460503D01*
X175679386Y-86480838D01*
X175679385Y-86480840D01*
X175676038Y-86501972D01*
X175674139Y-86511515D01*
X175650957Y-86608076D01*
X175650956Y-86608083D01*
X175643163Y-86707093D01*
X175642019Y-86716759D01*
X175638674Y-86737879D01*
X175638674Y-86759264D01*
X175638292Y-86768993D01*
X175630500Y-86868000D01*
X175633990Y-86912344D01*
X175638292Y-86967005D01*
X175638674Y-86976734D01*
X175638674Y-86998117D01*
X175642019Y-87019242D01*
X175643163Y-87028906D01*
X175650955Y-87127914D01*
X175650955Y-87127915D01*
X175674139Y-87224485D01*
X175676038Y-87234028D01*
X175679385Y-87255157D01*
X175685990Y-87275484D01*
X175688632Y-87284853D01*
X175711818Y-87381427D01*
X175711819Y-87381430D01*
X175749823Y-87473181D01*
X175753190Y-87482308D01*
X175759800Y-87502650D01*
X175759804Y-87502659D01*
X175769514Y-87521716D01*
X175773587Y-87530551D01*
X175811593Y-87622305D01*
X175811595Y-87622309D01*
X175811596Y-87622310D01*
X175863486Y-87706988D01*
X175868242Y-87715481D01*
X175877946Y-87734526D01*
X175877949Y-87734531D01*
X175890528Y-87751844D01*
X175895926Y-87759924D01*
X175947818Y-87844606D01*
X175947819Y-87844607D01*
X176012314Y-87920120D01*
X176018339Y-87927763D01*
X176030909Y-87945062D01*
X176030916Y-87945071D01*
X176046025Y-87960180D01*
X176052634Y-87967329D01*
X176117142Y-88042858D01*
X176192678Y-88107372D01*
X176199812Y-88113967D01*
X176214931Y-88129086D01*
X176232233Y-88141657D01*
X176239857Y-88147667D01*
X176309596Y-88207229D01*
X176315393Y-88212180D01*
X176315393Y-88212181D01*
X176315395Y-88212182D01*
X176400088Y-88264081D01*
X176408166Y-88269480D01*
X176425469Y-88282051D01*
X176425477Y-88282055D01*
X176444521Y-88291759D01*
X176453016Y-88296516D01*
X176537695Y-88348407D01*
X176537697Y-88348408D01*
X176629440Y-88386409D01*
X176638275Y-88390481D01*
X176657343Y-88400197D01*
X176677693Y-88406809D01*
X176686788Y-88410163D01*
X176778568Y-88448180D01*
X176778578Y-88448182D01*
X176778580Y-88448183D01*
X176792288Y-88451474D01*
X176875156Y-88471368D01*
X176884475Y-88473996D01*
X176904845Y-88480615D01*
X176925988Y-88483963D01*
X176935491Y-88485854D01*
X177032084Y-88509044D01*
X177131113Y-88516837D01*
X177140725Y-88517975D01*
X177161880Y-88521326D01*
X177161883Y-88521326D01*
X177183265Y-88521326D01*
X177192994Y-88521708D01*
X177292000Y-88529500D01*
X177391006Y-88521708D01*
X177400735Y-88521326D01*
X177422117Y-88521326D01*
X177422120Y-88521326D01*
X177443277Y-88517974D01*
X177452886Y-88516837D01*
X177551916Y-88509044D01*
X177648508Y-88485854D01*
X177658007Y-88483964D01*
X177679155Y-88480615D01*
X177699534Y-88473993D01*
X177708836Y-88471370D01*
X177782467Y-88453693D01*
X177805417Y-88448184D01*
X177805420Y-88448182D01*
X177805432Y-88448180D01*
X177897204Y-88410166D01*
X177906290Y-88406814D01*
X177926657Y-88400197D01*
X177933900Y-88396506D01*
X178002564Y-88383604D01*
X178067307Y-88409873D01*
X178107570Y-88466975D01*
X178114178Y-88504472D01*
X178697962Y-117296615D01*
X178679640Y-117364040D01*
X178627774Y-117410856D01*
X178572943Y-117423125D01*
X154691020Y-117222014D01*
X154624149Y-117201765D01*
X154578840Y-117148578D01*
X154568090Y-117100551D01*
X154474650Y-112522001D01*
X154782410Y-112522001D01*
X154802242Y-112748686D01*
X154802244Y-112748697D01*
X154861136Y-112968488D01*
X154861139Y-112968497D01*
X154957309Y-113174732D01*
X154957310Y-113174734D01*
X155087832Y-113361141D01*
X155248736Y-113522045D01*
X155248739Y-113522047D01*
X155435144Y-113652568D01*
X155493743Y-113679893D01*
X155546183Y-113726065D01*
X155565335Y-113793258D01*
X155545120Y-113860139D01*
X155493745Y-113904657D01*
X155435393Y-113931867D01*
X155249057Y-114062342D01*
X155088220Y-114223179D01*
X154957743Y-114409517D01*
X154861612Y-114615673D01*
X154861608Y-114615682D01*
X154809005Y-114811999D01*
X154809006Y-114812000D01*
X155772192Y-114812000D01*
X155760237Y-114823955D01*
X155702713Y-114936852D01*
X155682892Y-115062000D01*
X155702713Y-115187148D01*
X155760237Y-115300045D01*
X155772192Y-115312000D01*
X154809006Y-115312000D01*
X154861608Y-115508317D01*
X154861612Y-115508326D01*
X154957743Y-115714482D01*
X155088220Y-115900820D01*
X155249057Y-116061657D01*
X155435395Y-116192134D01*
X155641551Y-116288265D01*
X155641560Y-116288269D01*
X155837877Y-116340872D01*
X155837878Y-116340871D01*
X155837878Y-115377686D01*
X155849833Y-115389641D01*
X155962730Y-115447165D01*
X156056397Y-115462000D01*
X156119359Y-115462000D01*
X156213026Y-115447165D01*
X156325923Y-115389641D01*
X156337878Y-115377686D01*
X156337878Y-116340872D01*
X156534195Y-116288269D01*
X156534204Y-116288265D01*
X156740360Y-116192134D01*
X156926698Y-116061657D01*
X157087535Y-115900820D01*
X157218012Y-115714482D01*
X157314143Y-115508326D01*
X157314147Y-115508317D01*
X157366750Y-115312000D01*
X156403564Y-115312000D01*
X156415519Y-115300045D01*
X156473043Y-115187148D01*
X156492864Y-115062001D01*
X162402410Y-115062001D01*
X162422242Y-115288686D01*
X162422244Y-115288697D01*
X162481136Y-115508488D01*
X162481139Y-115508497D01*
X162577309Y-115714732D01*
X162577310Y-115714734D01*
X162707832Y-115901141D01*
X162868736Y-116062045D01*
X162868739Y-116062047D01*
X163055144Y-116192568D01*
X163261382Y-116288739D01*
X163481186Y-116347635D01*
X163643108Y-116361801D01*
X163707876Y-116367468D01*
X163707878Y-116367468D01*
X163707880Y-116367468D01*
X163764551Y-116362509D01*
X163934570Y-116347635D01*
X164154374Y-116288739D01*
X164360612Y-116192568D01*
X164547017Y-116062047D01*
X164707925Y-115901139D01*
X164749303Y-115842045D01*
X164803879Y-115798420D01*
X164873378Y-115791226D01*
X164935733Y-115822749D01*
X164952453Y-115842045D01*
X164993832Y-115901141D01*
X165154736Y-116062045D01*
X165154739Y-116062047D01*
X165341144Y-116192568D01*
X165547382Y-116288739D01*
X165767186Y-116347635D01*
X165929108Y-116361801D01*
X165993876Y-116367468D01*
X165993878Y-116367468D01*
X165993880Y-116367468D01*
X166050551Y-116362509D01*
X166220570Y-116347635D01*
X166440374Y-116288739D01*
X166646612Y-116192568D01*
X166833017Y-116062047D01*
X166993925Y-115901139D01*
X167124446Y-115714734D01*
X167220617Y-115508496D01*
X167279513Y-115288692D01*
X167299346Y-115062000D01*
X167279513Y-114835308D01*
X167220617Y-114615504D01*
X167124446Y-114409266D01*
X166993925Y-114222861D01*
X166993923Y-114222858D01*
X166833019Y-114061954D01*
X166646612Y-113931432D01*
X166646608Y-113931430D01*
X166630900Y-113924105D01*
X166578461Y-113877931D01*
X166559311Y-113810737D01*
X166579528Y-113743857D01*
X166630906Y-113699340D01*
X166646359Y-113692134D01*
X166719349Y-113641024D01*
X166038278Y-112959953D01*
X166119026Y-112947165D01*
X166231923Y-112889641D01*
X166321519Y-112800045D01*
X166379043Y-112687148D01*
X166391831Y-112606400D01*
X167072902Y-113287471D01*
X167124014Y-113214478D01*
X167220142Y-113008331D01*
X167220147Y-113008317D01*
X167279017Y-112788610D01*
X167279019Y-112788599D01*
X167298844Y-112562002D01*
X167298844Y-112561997D01*
X167279019Y-112335400D01*
X167279017Y-112335389D01*
X167220147Y-112115682D01*
X167220142Y-112115668D01*
X167124014Y-111909521D01*
X167124010Y-111909513D01*
X167072903Y-111836526D01*
X166391831Y-112517598D01*
X166379043Y-112436852D01*
X166321519Y-112323955D01*
X166231923Y-112234359D01*
X166119026Y-112176835D01*
X166038279Y-112164046D01*
X166719350Y-111482974D01*
X166646356Y-111431863D01*
X166440209Y-111335735D01*
X166440195Y-111335730D01*
X166220488Y-111276860D01*
X166220477Y-111276858D01*
X165993880Y-111257034D01*
X165993876Y-111257034D01*
X165767278Y-111276858D01*
X165767267Y-111276860D01*
X165547560Y-111335730D01*
X165547551Y-111335734D01*
X165341394Y-111431866D01*
X165341390Y-111431868D01*
X165268404Y-111482973D01*
X165268404Y-111482974D01*
X165949477Y-112164046D01*
X165868730Y-112176835D01*
X165755833Y-112234359D01*
X165666237Y-112323955D01*
X165608713Y-112436852D01*
X165595924Y-112517598D01*
X164914851Y-111836526D01*
X164892573Y-111838475D01*
X164824074Y-111824708D01*
X164780192Y-111786070D01*
X164707923Y-111682858D01*
X164547019Y-111521954D01*
X164360612Y-111391432D01*
X164360606Y-111391429D01*
X164302603Y-111364382D01*
X164250163Y-111318210D01*
X164231011Y-111251017D01*
X164251226Y-111184135D01*
X164302603Y-111139618D01*
X164360612Y-111112568D01*
X164547017Y-110982047D01*
X164707925Y-110821139D01*
X164838446Y-110634734D01*
X164934617Y-110428496D01*
X164993513Y-110208692D01*
X165013346Y-109982000D01*
X164993513Y-109755308D01*
X164934617Y-109535504D01*
X164838446Y-109329266D01*
X164707925Y-109142861D01*
X164707923Y-109142858D01*
X164547019Y-108981954D01*
X164360612Y-108851432D01*
X164360606Y-108851429D01*
X164302603Y-108824382D01*
X164250163Y-108778210D01*
X164231011Y-108711017D01*
X164251226Y-108644135D01*
X164302603Y-108599618D01*
X164360612Y-108572568D01*
X164547017Y-108442047D01*
X164707925Y-108281139D01*
X164838446Y-108094734D01*
X164934617Y-107888496D01*
X164993513Y-107668692D01*
X165013346Y-107442000D01*
X165908219Y-107442000D01*
X165928814Y-107677403D01*
X165928816Y-107677413D01*
X165989972Y-107905655D01*
X165989974Y-107905659D01*
X165989975Y-107905663D01*
X166078140Y-108094732D01*
X166089843Y-108119830D01*
X166089845Y-108119834D01*
X166198159Y-108274521D01*
X166225383Y-108313401D01*
X166392477Y-108480495D01*
X166489262Y-108548265D01*
X166586043Y-108616032D01*
X166586045Y-108616033D01*
X166586048Y-108616035D01*
X166800215Y-108715903D01*
X167028470Y-108777063D01*
X167216796Y-108793539D01*
X167263877Y-108797659D01*
X167263878Y-108797659D01*
X167263879Y-108797659D01*
X167303112Y-108794226D01*
X167499286Y-108777063D01*
X167727541Y-108715903D01*
X167941708Y-108616035D01*
X168135279Y-108480495D01*
X168302373Y-108313401D01*
X168437913Y-108119830D01*
X168537781Y-107905663D01*
X168598941Y-107677408D01*
X168619537Y-107442000D01*
X168598941Y-107206592D01*
X168537781Y-106978337D01*
X168437913Y-106764171D01*
X168302373Y-106570599D01*
X168302372Y-106570597D01*
X168135280Y-106403506D01*
X168135274Y-106403501D01*
X167949720Y-106273575D01*
X167906095Y-106218998D01*
X167898901Y-106149500D01*
X167930424Y-106087145D01*
X167949720Y-106070425D01*
X167987916Y-106043680D01*
X168135279Y-105940495D01*
X168302373Y-105773401D01*
X168437913Y-105579830D01*
X168537781Y-105365663D01*
X168593959Y-105156000D01*
X172258219Y-105156000D01*
X172278814Y-105391403D01*
X172278816Y-105391413D01*
X172339972Y-105619655D01*
X172339974Y-105619659D01*
X172339975Y-105619663D01*
X172411665Y-105773402D01*
X172439843Y-105833830D01*
X172439845Y-105833834D01*
X172514533Y-105940498D01*
X172575383Y-106027401D01*
X172742477Y-106194495D01*
X172807272Y-106239865D01*
X172936043Y-106330032D01*
X172936045Y-106330033D01*
X172936048Y-106330035D01*
X173150215Y-106429903D01*
X173378470Y-106491063D01*
X173549197Y-106506000D01*
X173613877Y-106511659D01*
X173613878Y-106511659D01*
X173613879Y-106511659D01*
X173678559Y-106506000D01*
X173849286Y-106491063D01*
X174077541Y-106429903D01*
X174291708Y-106330035D01*
X174485279Y-106194495D01*
X174607595Y-106072178D01*
X174668914Y-106038696D01*
X174738606Y-106043680D01*
X174794540Y-106085551D01*
X174811455Y-106116528D01*
X174860524Y-106248088D01*
X174860527Y-106248093D01*
X174946687Y-106363187D01*
X174946690Y-106363190D01*
X175061784Y-106449350D01*
X175061791Y-106449354D01*
X175196498Y-106499596D01*
X175196505Y-106499598D01*
X175256033Y-106505999D01*
X175256050Y-106506000D01*
X175903878Y-106506000D01*
X175903878Y-105591501D01*
X176011563Y-105640680D01*
X176118115Y-105656000D01*
X176189641Y-105656000D01*
X176296193Y-105640680D01*
X176403878Y-105591501D01*
X176403878Y-106506000D01*
X177051706Y-106506000D01*
X177051722Y-106505999D01*
X177111250Y-106499598D01*
X177111257Y-106499596D01*
X177245964Y-106449354D01*
X177245971Y-106449350D01*
X177361065Y-106363190D01*
X177361068Y-106363187D01*
X177447228Y-106248093D01*
X177447232Y-106248086D01*
X177497474Y-106113379D01*
X177497476Y-106113372D01*
X177503877Y-106053844D01*
X177503878Y-106053827D01*
X177503878Y-105406000D01*
X176587564Y-105406000D01*
X176613371Y-105365844D01*
X176653878Y-105227889D01*
X176653878Y-105084111D01*
X176613371Y-104946156D01*
X176587564Y-104906000D01*
X177503878Y-104906000D01*
X177503878Y-104258172D01*
X177503877Y-104258155D01*
X177497476Y-104198627D01*
X177497474Y-104198620D01*
X177447232Y-104063913D01*
X177447228Y-104063906D01*
X177361068Y-103948812D01*
X177361065Y-103948809D01*
X177245971Y-103862649D01*
X177245964Y-103862645D01*
X177111257Y-103812403D01*
X177111250Y-103812401D01*
X177051722Y-103806000D01*
X176403878Y-103806000D01*
X176403878Y-104720498D01*
X176296193Y-104671320D01*
X176189641Y-104656000D01*
X176118115Y-104656000D01*
X176011563Y-104671320D01*
X175903878Y-104720498D01*
X175903878Y-103806000D01*
X175256033Y-103806000D01*
X175196505Y-103812401D01*
X175196498Y-103812403D01*
X175061791Y-103862645D01*
X175061784Y-103862649D01*
X174946690Y-103948809D01*
X174946687Y-103948812D01*
X174860527Y-104063906D01*
X174860523Y-104063913D01*
X174811456Y-104195470D01*
X174769585Y-104251404D01*
X174704120Y-104275821D01*
X174635847Y-104260969D01*
X174607593Y-104239819D01*
X174563244Y-104195470D01*
X174485279Y-104117505D01*
X174485275Y-104117502D01*
X174485274Y-104117501D01*
X174291712Y-103981967D01*
X174291708Y-103981965D01*
X174220605Y-103948809D01*
X174077541Y-103882097D01*
X174077537Y-103882096D01*
X174077533Y-103882094D01*
X173849291Y-103820938D01*
X173849281Y-103820936D01*
X173613879Y-103800341D01*
X173613877Y-103800341D01*
X173378474Y-103820936D01*
X173378464Y-103820938D01*
X173150222Y-103882094D01*
X173150213Y-103882098D01*
X172936049Y-103981964D01*
X172936047Y-103981965D01*
X172742475Y-104117505D01*
X172575383Y-104284597D01*
X172439843Y-104478169D01*
X172439842Y-104478171D01*
X172339976Y-104692335D01*
X172339972Y-104692344D01*
X172278816Y-104920586D01*
X172278814Y-104920596D01*
X172258219Y-105155999D01*
X172258219Y-105156000D01*
X168593959Y-105156000D01*
X168598941Y-105137408D01*
X168619537Y-104902000D01*
X168598941Y-104666592D01*
X168537781Y-104438337D01*
X168437913Y-104224171D01*
X168417817Y-104195470D01*
X168302372Y-104030597D01*
X168135280Y-103863506D01*
X168135274Y-103863501D01*
X167949720Y-103733575D01*
X167906095Y-103678998D01*
X167898901Y-103609500D01*
X167930424Y-103547145D01*
X167949720Y-103530425D01*
X168003787Y-103492567D01*
X168135279Y-103400495D01*
X168302373Y-103233401D01*
X168437913Y-103039830D01*
X168537781Y-102825663D01*
X168598941Y-102597408D01*
X168619537Y-102362000D01*
X168598941Y-102126592D01*
X168537781Y-101898337D01*
X168437913Y-101684171D01*
X168302373Y-101490599D01*
X168302372Y-101490597D01*
X168135280Y-101323506D01*
X168135274Y-101323501D01*
X167949720Y-101193575D01*
X167906095Y-101138998D01*
X167898901Y-101069500D01*
X167930424Y-101007145D01*
X167949720Y-100990425D01*
X168003787Y-100952567D01*
X168135279Y-100860495D01*
X168302373Y-100693401D01*
X168437913Y-100499830D01*
X168537781Y-100285663D01*
X168598941Y-100057408D01*
X168619537Y-99822000D01*
X168598941Y-99586592D01*
X168552504Y-99413285D01*
X168537783Y-99358344D01*
X168537782Y-99358343D01*
X168537781Y-99358337D01*
X168517106Y-99314000D01*
X172258219Y-99314000D01*
X172278814Y-99549403D01*
X172278816Y-99549413D01*
X172339972Y-99777655D01*
X172339974Y-99777659D01*
X172339975Y-99777663D01*
X172439843Y-99991830D01*
X172439845Y-99991834D01*
X172548159Y-100146521D01*
X172575383Y-100185401D01*
X172742477Y-100352495D01*
X172819013Y-100406086D01*
X172936043Y-100488032D01*
X172936045Y-100488033D01*
X172936048Y-100488035D01*
X173150215Y-100587903D01*
X173378470Y-100649063D01*
X173549197Y-100664000D01*
X173613877Y-100669659D01*
X173613878Y-100669659D01*
X173613879Y-100669659D01*
X173678559Y-100664000D01*
X173849286Y-100649063D01*
X174077541Y-100587903D01*
X174291708Y-100488035D01*
X174485279Y-100352495D01*
X174607595Y-100230178D01*
X174668914Y-100196696D01*
X174738606Y-100201680D01*
X174794540Y-100243551D01*
X174811455Y-100274528D01*
X174860524Y-100406088D01*
X174860527Y-100406093D01*
X174946687Y-100521187D01*
X174946690Y-100521190D01*
X175061784Y-100607350D01*
X175061791Y-100607354D01*
X175196498Y-100657596D01*
X175196505Y-100657598D01*
X175256033Y-100663999D01*
X175256050Y-100664000D01*
X175903878Y-100664000D01*
X175903878Y-99749501D01*
X176011563Y-99798680D01*
X176118115Y-99814000D01*
X176189641Y-99814000D01*
X176296193Y-99798680D01*
X176403878Y-99749501D01*
X176403878Y-100664000D01*
X177051706Y-100664000D01*
X177051722Y-100663999D01*
X177111250Y-100657598D01*
X177111257Y-100657596D01*
X177245964Y-100607354D01*
X177245971Y-100607350D01*
X177361065Y-100521190D01*
X177361068Y-100521187D01*
X177447228Y-100406093D01*
X177447232Y-100406086D01*
X177497474Y-100271379D01*
X177497476Y-100271372D01*
X177503877Y-100211844D01*
X177503878Y-100211827D01*
X177503878Y-99564000D01*
X176587564Y-99564000D01*
X176613371Y-99523844D01*
X176653878Y-99385889D01*
X176653878Y-99242111D01*
X176613371Y-99104156D01*
X176587564Y-99064000D01*
X177503878Y-99064000D01*
X177503878Y-98416172D01*
X177503877Y-98416155D01*
X177497476Y-98356627D01*
X177497474Y-98356620D01*
X177447232Y-98221913D01*
X177447228Y-98221906D01*
X177361068Y-98106812D01*
X177361065Y-98106809D01*
X177245971Y-98020649D01*
X177245964Y-98020645D01*
X177111257Y-97970403D01*
X177111250Y-97970401D01*
X177051722Y-97964000D01*
X176403878Y-97964000D01*
X176403878Y-98878498D01*
X176296193Y-98829320D01*
X176189641Y-98814000D01*
X176118115Y-98814000D01*
X176011563Y-98829320D01*
X175903878Y-98878498D01*
X175903878Y-97964000D01*
X175256033Y-97964000D01*
X175196505Y-97970401D01*
X175196498Y-97970403D01*
X175061791Y-98020645D01*
X175061784Y-98020649D01*
X174946690Y-98106809D01*
X174946687Y-98106812D01*
X174860527Y-98221906D01*
X174860523Y-98221913D01*
X174811456Y-98353470D01*
X174769585Y-98409404D01*
X174704120Y-98433821D01*
X174635847Y-98418969D01*
X174607593Y-98397819D01*
X174563244Y-98353470D01*
X174485279Y-98275505D01*
X174485275Y-98275502D01*
X174485274Y-98275501D01*
X174291712Y-98139967D01*
X174291708Y-98139965D01*
X174270066Y-98129873D01*
X174077541Y-98040097D01*
X174077537Y-98040096D01*
X174077533Y-98040094D01*
X173849291Y-97978938D01*
X173849281Y-97978936D01*
X173613879Y-97958341D01*
X173613877Y-97958341D01*
X173378474Y-97978936D01*
X173378464Y-97978938D01*
X173150222Y-98040094D01*
X173150213Y-98040098D01*
X172936049Y-98139964D01*
X172936047Y-98139965D01*
X172742475Y-98275505D01*
X172575383Y-98442597D01*
X172439843Y-98636169D01*
X172439842Y-98636171D01*
X172339976Y-98850335D01*
X172339972Y-98850344D01*
X172278816Y-99078586D01*
X172278814Y-99078596D01*
X172258219Y-99313999D01*
X172258219Y-99314000D01*
X168517106Y-99314000D01*
X168437913Y-99144171D01*
X168409894Y-99104156D01*
X168302374Y-98950600D01*
X168302373Y-98950599D01*
X168180445Y-98828671D01*
X168146962Y-98767351D01*
X168151946Y-98697659D01*
X168193817Y-98641725D01*
X168224793Y-98624810D01*
X168356209Y-98575796D01*
X168471424Y-98489546D01*
X168557674Y-98374331D01*
X168607969Y-98239483D01*
X168614378Y-98179873D01*
X168614377Y-96384128D01*
X168607969Y-96324517D01*
X168557674Y-96189669D01*
X168557673Y-96189668D01*
X168557671Y-96189664D01*
X168471425Y-96074455D01*
X168471422Y-96074452D01*
X168356213Y-95988206D01*
X168356206Y-95988202D01*
X168221360Y-95937908D01*
X168221361Y-95937908D01*
X168161761Y-95931501D01*
X168161759Y-95931500D01*
X168161751Y-95931500D01*
X168161742Y-95931500D01*
X166366007Y-95931500D01*
X166366001Y-95931501D01*
X166306394Y-95937908D01*
X166171549Y-95988202D01*
X166171542Y-95988206D01*
X166056333Y-96074452D01*
X166056330Y-96074455D01*
X165970084Y-96189664D01*
X165970080Y-96189671D01*
X165919786Y-96324517D01*
X165914411Y-96374516D01*
X165913379Y-96384123D01*
X165913378Y-96384135D01*
X165913378Y-98179870D01*
X165913379Y-98179876D01*
X165919786Y-98239483D01*
X165970080Y-98374328D01*
X165970084Y-98374335D01*
X166056330Y-98489544D01*
X166056333Y-98489547D01*
X166171542Y-98575793D01*
X166171549Y-98575797D01*
X166302959Y-98624810D01*
X166358893Y-98666681D01*
X166383310Y-98732145D01*
X166368458Y-98800418D01*
X166347308Y-98828673D01*
X166225381Y-98950600D01*
X166089843Y-99144169D01*
X166089842Y-99144171D01*
X165989976Y-99358335D01*
X165989972Y-99358344D01*
X165928816Y-99586586D01*
X165928814Y-99586596D01*
X165908219Y-99821999D01*
X165908219Y-99822000D01*
X165928814Y-100057403D01*
X165928816Y-100057413D01*
X165989972Y-100285655D01*
X165989974Y-100285659D01*
X165989975Y-100285663D01*
X166084342Y-100488034D01*
X166089843Y-100499830D01*
X166089845Y-100499834D01*
X166165129Y-100607350D01*
X166204795Y-100663999D01*
X166225379Y-100693395D01*
X166225384Y-100693402D01*
X166392475Y-100860493D01*
X166392481Y-100860498D01*
X166578036Y-100990425D01*
X166621661Y-101045002D01*
X166628855Y-101114500D01*
X166597332Y-101176855D01*
X166578036Y-101193575D01*
X166392475Y-101323505D01*
X166225383Y-101490597D01*
X166089843Y-101684169D01*
X166089842Y-101684171D01*
X165989976Y-101898335D01*
X165989972Y-101898344D01*
X165928816Y-102126586D01*
X165928814Y-102126596D01*
X165908219Y-102361999D01*
X165908219Y-102362000D01*
X165928814Y-102597403D01*
X165928816Y-102597413D01*
X165989972Y-102825655D01*
X165989974Y-102825659D01*
X165989975Y-102825663D01*
X166078140Y-103014732D01*
X166089843Y-103039830D01*
X166089845Y-103039834D01*
X166225379Y-103233395D01*
X166225384Y-103233402D01*
X166392475Y-103400493D01*
X166392481Y-103400498D01*
X166578036Y-103530425D01*
X166621661Y-103585002D01*
X166628855Y-103654500D01*
X166597332Y-103716855D01*
X166578036Y-103733575D01*
X166392475Y-103863505D01*
X166225383Y-104030597D01*
X166089843Y-104224169D01*
X166089842Y-104224171D01*
X165989976Y-104438335D01*
X165989972Y-104438344D01*
X165928816Y-104666586D01*
X165928814Y-104666596D01*
X165908219Y-104901999D01*
X165908219Y-104902000D01*
X165928814Y-105137403D01*
X165928816Y-105137413D01*
X165989972Y-105365655D01*
X165989974Y-105365659D01*
X165989975Y-105365663D01*
X166078140Y-105554732D01*
X166089843Y-105579830D01*
X166089845Y-105579834D01*
X166225379Y-105773395D01*
X166225384Y-105773402D01*
X166392475Y-105940493D01*
X166392481Y-105940498D01*
X166578036Y-106070425D01*
X166621661Y-106125002D01*
X166628855Y-106194500D01*
X166597332Y-106256855D01*
X166578036Y-106273575D01*
X166392475Y-106403505D01*
X166225383Y-106570597D01*
X166089843Y-106764169D01*
X166089842Y-106764171D01*
X165989976Y-106978335D01*
X165989972Y-106978344D01*
X165928816Y-107206586D01*
X165928814Y-107206596D01*
X165908219Y-107441999D01*
X165908219Y-107442000D01*
X165013346Y-107442000D01*
X164993513Y-107215308D01*
X164934617Y-106995504D01*
X164838446Y-106789266D01*
X164707925Y-106602861D01*
X164707923Y-106602858D01*
X164547019Y-106441954D01*
X164360612Y-106311432D01*
X164360606Y-106311429D01*
X164302603Y-106284382D01*
X164250163Y-106238210D01*
X164231011Y-106171017D01*
X164251226Y-106104135D01*
X164302603Y-106059618D01*
X164360612Y-106032568D01*
X164547017Y-105902047D01*
X164707925Y-105741139D01*
X164838446Y-105554734D01*
X164934617Y-105348496D01*
X164993513Y-105128692D01*
X165013346Y-104902000D01*
X164993513Y-104675308D01*
X164934617Y-104455504D01*
X164838446Y-104249266D01*
X164707925Y-104062861D01*
X164707923Y-104062858D01*
X164547019Y-103901954D01*
X164360612Y-103771432D01*
X164360606Y-103771429D01*
X164302603Y-103744382D01*
X164250163Y-103698210D01*
X164231011Y-103631017D01*
X164251226Y-103564135D01*
X164302603Y-103519618D01*
X164360612Y-103492568D01*
X164547017Y-103362047D01*
X164707925Y-103201139D01*
X164838446Y-103014734D01*
X164934617Y-102808496D01*
X164993513Y-102588692D01*
X165013346Y-102362000D01*
X164993513Y-102135308D01*
X164934617Y-101915504D01*
X164838446Y-101709266D01*
X164707925Y-101522861D01*
X164707923Y-101522858D01*
X164547019Y-101361954D01*
X164360612Y-101231432D01*
X164360606Y-101231429D01*
X164302603Y-101204382D01*
X164250163Y-101158210D01*
X164231011Y-101091017D01*
X164251226Y-101024135D01*
X164302603Y-100979618D01*
X164360612Y-100952568D01*
X164547017Y-100822047D01*
X164707925Y-100661139D01*
X164838446Y-100474734D01*
X164934617Y-100268496D01*
X164993513Y-100048692D01*
X165013346Y-99822000D01*
X164993513Y-99595308D01*
X164934617Y-99375504D01*
X164838446Y-99169266D01*
X164707925Y-98982861D01*
X164707923Y-98982858D01*
X164547019Y-98821954D01*
X164360612Y-98691432D01*
X164360606Y-98691429D01*
X164332916Y-98678517D01*
X164302602Y-98664381D01*
X164250163Y-98618210D01*
X164231011Y-98551017D01*
X164251226Y-98484135D01*
X164302603Y-98439618D01*
X164360612Y-98412568D01*
X164547017Y-98282047D01*
X164707925Y-98121139D01*
X164838446Y-97934734D01*
X164934617Y-97728496D01*
X164993513Y-97508692D01*
X165013346Y-97282000D01*
X164993513Y-97055308D01*
X164934617Y-96835504D01*
X164838446Y-96629266D01*
X164707925Y-96442861D01*
X164707923Y-96442858D01*
X164547019Y-96281954D01*
X164360612Y-96151432D01*
X164360610Y-96151431D01*
X164154375Y-96055261D01*
X164154366Y-96055258D01*
X163934575Y-95996366D01*
X163934571Y-95996365D01*
X163934570Y-95996365D01*
X163934569Y-95996364D01*
X163934564Y-95996364D01*
X163707880Y-95976532D01*
X163707876Y-95976532D01*
X163481191Y-95996364D01*
X163481180Y-95996366D01*
X163261389Y-96055258D01*
X163261380Y-96055261D01*
X163055145Y-96151431D01*
X163055143Y-96151432D01*
X162868736Y-96281954D01*
X162707832Y-96442858D01*
X162577310Y-96629265D01*
X162577309Y-96629267D01*
X162481139Y-96835502D01*
X162481136Y-96835511D01*
X162422244Y-97055302D01*
X162422242Y-97055313D01*
X162402410Y-97281998D01*
X162402410Y-97282001D01*
X162422242Y-97508686D01*
X162422244Y-97508697D01*
X162481136Y-97728488D01*
X162481139Y-97728497D01*
X162577309Y-97934732D01*
X162577310Y-97934734D01*
X162707832Y-98121141D01*
X162868736Y-98282045D01*
X162868739Y-98282047D01*
X163055144Y-98412568D01*
X163113153Y-98439618D01*
X163165592Y-98485791D01*
X163184744Y-98552984D01*
X163164528Y-98619865D01*
X163113153Y-98664381D01*
X163096150Y-98672310D01*
X163055145Y-98691431D01*
X163055143Y-98691432D01*
X162868736Y-98821954D01*
X162707832Y-98982858D01*
X162577310Y-99169265D01*
X162577309Y-99169267D01*
X162481139Y-99375502D01*
X162481136Y-99375511D01*
X162422244Y-99595302D01*
X162422242Y-99595313D01*
X162402410Y-99821998D01*
X162402410Y-99822001D01*
X162422242Y-100048686D01*
X162422244Y-100048697D01*
X162481136Y-100268488D01*
X162481139Y-100268497D01*
X162577309Y-100474732D01*
X162577310Y-100474734D01*
X162707832Y-100661141D01*
X162868736Y-100822045D01*
X162868739Y-100822047D01*
X163055144Y-100952568D01*
X163113153Y-100979618D01*
X163165592Y-101025791D01*
X163184744Y-101092984D01*
X163164528Y-101159865D01*
X163113153Y-101204382D01*
X163055145Y-101231431D01*
X163055143Y-101231432D01*
X162868736Y-101361954D01*
X162707832Y-101522858D01*
X162577310Y-101709265D01*
X162577309Y-101709267D01*
X162481139Y-101915502D01*
X162481136Y-101915511D01*
X162422244Y-102135302D01*
X162422242Y-102135313D01*
X162402410Y-102361998D01*
X162402410Y-102362001D01*
X162422242Y-102588686D01*
X162422244Y-102588697D01*
X162481136Y-102808488D01*
X162481139Y-102808497D01*
X162577309Y-103014732D01*
X162577310Y-103014734D01*
X162707832Y-103201141D01*
X162868736Y-103362045D01*
X162868739Y-103362047D01*
X163055144Y-103492568D01*
X163113153Y-103519618D01*
X163165592Y-103565791D01*
X163184744Y-103632984D01*
X163164528Y-103699865D01*
X163113153Y-103744382D01*
X163055145Y-103771431D01*
X163055143Y-103771432D01*
X162868736Y-103901954D01*
X162707832Y-104062858D01*
X162577310Y-104249265D01*
X162577309Y-104249267D01*
X162481139Y-104455502D01*
X162481136Y-104455511D01*
X162422244Y-104675302D01*
X162422242Y-104675313D01*
X162402410Y-104901998D01*
X162402410Y-104902001D01*
X162422242Y-105128686D01*
X162422244Y-105128697D01*
X162481136Y-105348488D01*
X162481139Y-105348497D01*
X162577309Y-105554732D01*
X162577310Y-105554734D01*
X162707832Y-105741141D01*
X162868736Y-105902045D01*
X162868739Y-105902047D01*
X163055144Y-106032568D01*
X163113153Y-106059618D01*
X163165592Y-106105791D01*
X163184744Y-106172984D01*
X163164528Y-106239865D01*
X163113153Y-106284382D01*
X163055145Y-106311431D01*
X163055143Y-106311432D01*
X162868736Y-106441954D01*
X162707832Y-106602858D01*
X162577310Y-106789265D01*
X162577309Y-106789267D01*
X162481139Y-106995502D01*
X162481136Y-106995511D01*
X162422244Y-107215302D01*
X162422242Y-107215313D01*
X162402410Y-107441998D01*
X162402410Y-107442001D01*
X162422242Y-107668686D01*
X162422244Y-107668697D01*
X162481136Y-107888488D01*
X162481139Y-107888497D01*
X162577309Y-108094732D01*
X162577310Y-108094734D01*
X162707832Y-108281141D01*
X162868736Y-108442045D01*
X162868739Y-108442047D01*
X163055144Y-108572568D01*
X163113153Y-108599618D01*
X163165592Y-108645791D01*
X163184744Y-108712984D01*
X163164528Y-108779865D01*
X163113153Y-108824382D01*
X163055145Y-108851431D01*
X163055143Y-108851432D01*
X162868736Y-108981954D01*
X162707832Y-109142858D01*
X162577310Y-109329265D01*
X162577309Y-109329267D01*
X162481139Y-109535502D01*
X162481136Y-109535511D01*
X162422244Y-109755302D01*
X162422242Y-109755313D01*
X162402410Y-109981998D01*
X162402410Y-109982001D01*
X162422242Y-110208686D01*
X162422244Y-110208697D01*
X162481136Y-110428488D01*
X162481139Y-110428497D01*
X162577309Y-110634732D01*
X162577310Y-110634734D01*
X162707832Y-110821141D01*
X162868736Y-110982045D01*
X162868739Y-110982047D01*
X163055144Y-111112568D01*
X163113153Y-111139618D01*
X163165592Y-111185791D01*
X163184744Y-111252984D01*
X163164528Y-111319865D01*
X163113153Y-111364382D01*
X163055145Y-111391431D01*
X163055143Y-111391432D01*
X162868736Y-111521954D01*
X162707832Y-111682858D01*
X162577310Y-111869265D01*
X162577309Y-111869267D01*
X162481139Y-112075502D01*
X162481136Y-112075511D01*
X162422244Y-112295302D01*
X162422242Y-112295313D01*
X162402410Y-112521998D01*
X162402410Y-112522001D01*
X162422242Y-112748686D01*
X162422244Y-112748697D01*
X162481136Y-112968488D01*
X162481139Y-112968497D01*
X162577309Y-113174732D01*
X162577310Y-113174734D01*
X162707832Y-113361141D01*
X162868736Y-113522045D01*
X162868739Y-113522047D01*
X163055144Y-113652568D01*
X163113153Y-113679618D01*
X163165592Y-113725791D01*
X163184744Y-113792984D01*
X163164528Y-113859865D01*
X163113153Y-113904382D01*
X163055145Y-113931431D01*
X163055143Y-113931432D01*
X162868736Y-114061954D01*
X162707832Y-114222858D01*
X162577310Y-114409265D01*
X162577309Y-114409267D01*
X162481139Y-114615502D01*
X162481136Y-114615511D01*
X162422244Y-114835302D01*
X162422242Y-114835313D01*
X162402410Y-115061998D01*
X162402410Y-115062001D01*
X156492864Y-115062001D01*
X156492864Y-115062000D01*
X156473043Y-114936852D01*
X156415519Y-114823955D01*
X156403564Y-114812000D01*
X157366750Y-114812000D01*
X157366750Y-114811999D01*
X157314147Y-114615682D01*
X157314143Y-114615673D01*
X157218012Y-114409517D01*
X157087535Y-114223179D01*
X156926698Y-114062342D01*
X156740360Y-113931865D01*
X156682011Y-113904657D01*
X156629572Y-113858484D01*
X156610420Y-113791291D01*
X156630636Y-113724410D01*
X156682007Y-113679895D01*
X156740612Y-113652568D01*
X156927017Y-113522047D01*
X157087925Y-113361139D01*
X157218446Y-113174734D01*
X157314617Y-112968496D01*
X157373513Y-112748692D01*
X157393346Y-112522000D01*
X157373513Y-112295308D01*
X157314617Y-112075504D01*
X157218446Y-111869266D01*
X157087925Y-111682861D01*
X157087923Y-111682858D01*
X156927019Y-111521954D01*
X156740612Y-111391432D01*
X156740606Y-111391429D01*
X156682603Y-111364382D01*
X156630163Y-111318210D01*
X156611011Y-111251017D01*
X156631226Y-111184135D01*
X156682603Y-111139618D01*
X156740612Y-111112568D01*
X156927017Y-110982047D01*
X157087925Y-110821139D01*
X157218446Y-110634734D01*
X157314617Y-110428496D01*
X157373513Y-110208692D01*
X157393346Y-109982000D01*
X157373513Y-109755308D01*
X157314617Y-109535504D01*
X157218446Y-109329266D01*
X157087925Y-109142861D01*
X157087923Y-109142858D01*
X156927019Y-108981954D01*
X156740612Y-108851432D01*
X156740606Y-108851429D01*
X156682603Y-108824382D01*
X156630163Y-108778210D01*
X156611011Y-108711017D01*
X156631226Y-108644135D01*
X156682603Y-108599618D01*
X156740612Y-108572568D01*
X156927017Y-108442047D01*
X157087925Y-108281139D01*
X157218446Y-108094734D01*
X157314617Y-107888496D01*
X157373513Y-107668692D01*
X157393346Y-107442000D01*
X157373513Y-107215308D01*
X157314617Y-106995504D01*
X157218446Y-106789266D01*
X157087925Y-106602861D01*
X157087923Y-106602858D01*
X156927019Y-106441954D01*
X156740612Y-106311432D01*
X156740606Y-106311429D01*
X156682603Y-106284382D01*
X156630163Y-106238210D01*
X156611011Y-106171017D01*
X156631226Y-106104135D01*
X156682603Y-106059618D01*
X156740612Y-106032568D01*
X156927017Y-105902047D01*
X157087925Y-105741139D01*
X157218446Y-105554734D01*
X157314617Y-105348496D01*
X157373513Y-105128692D01*
X157393346Y-104902000D01*
X157373513Y-104675308D01*
X157314617Y-104455504D01*
X157218446Y-104249266D01*
X157087925Y-104062861D01*
X157087923Y-104062858D01*
X156927019Y-103901954D01*
X156740612Y-103771432D01*
X156740606Y-103771429D01*
X156682603Y-103744382D01*
X156630163Y-103698210D01*
X156611011Y-103631017D01*
X156631226Y-103564135D01*
X156682603Y-103519618D01*
X156740612Y-103492568D01*
X156927017Y-103362047D01*
X157087925Y-103201139D01*
X157218446Y-103014734D01*
X157314617Y-102808496D01*
X157373513Y-102588692D01*
X157393346Y-102362000D01*
X157373513Y-102135308D01*
X157314617Y-101915504D01*
X157218446Y-101709266D01*
X157087925Y-101522861D01*
X157087923Y-101522858D01*
X156927019Y-101361954D01*
X156740612Y-101231432D01*
X156740606Y-101231429D01*
X156682603Y-101204382D01*
X156630163Y-101158210D01*
X156611011Y-101091017D01*
X156631226Y-101024135D01*
X156682603Y-100979618D01*
X156740612Y-100952568D01*
X156927017Y-100822047D01*
X157087925Y-100661139D01*
X157218446Y-100474734D01*
X157314617Y-100268496D01*
X157373513Y-100048692D01*
X157393346Y-99822000D01*
X157373513Y-99595308D01*
X157314617Y-99375504D01*
X157218446Y-99169266D01*
X157087925Y-98982861D01*
X157087923Y-98982858D01*
X156927021Y-98821956D01*
X156902414Y-98804726D01*
X156858790Y-98750149D01*
X156851597Y-98680650D01*
X156883119Y-98618296D01*
X156943349Y-98582882D01*
X156960282Y-98579861D01*
X156995361Y-98576091D01*
X157130209Y-98525796D01*
X157245424Y-98439546D01*
X157331674Y-98324331D01*
X157381969Y-98189483D01*
X157388378Y-98129873D01*
X157388377Y-96434128D01*
X157381969Y-96374517D01*
X157363320Y-96324517D01*
X157331675Y-96239671D01*
X157331671Y-96239664D01*
X157245425Y-96124455D01*
X157245422Y-96124452D01*
X157130213Y-96038206D01*
X157130206Y-96038202D01*
X156995360Y-95987908D01*
X156995361Y-95987908D01*
X156935761Y-95981501D01*
X156935759Y-95981500D01*
X156935751Y-95981500D01*
X156935742Y-95981500D01*
X155240007Y-95981500D01*
X155240001Y-95981501D01*
X155180394Y-95987908D01*
X155045549Y-96038202D01*
X155045542Y-96038206D01*
X154930333Y-96124452D01*
X154930330Y-96124455D01*
X154844084Y-96239664D01*
X154844080Y-96239671D01*
X154793786Y-96374517D01*
X154787379Y-96434116D01*
X154787379Y-96434123D01*
X154787378Y-96434135D01*
X154787378Y-98129870D01*
X154787379Y-98129876D01*
X154793786Y-98189483D01*
X154844080Y-98324328D01*
X154844084Y-98324335D01*
X154930330Y-98439544D01*
X154930333Y-98439547D01*
X155045542Y-98525793D01*
X155045549Y-98525797D01*
X155090496Y-98542561D01*
X155180395Y-98576091D01*
X155215474Y-98579862D01*
X155280022Y-98606599D01*
X155319871Y-98663991D01*
X155322366Y-98733816D01*
X155286714Y-98793905D01*
X155273342Y-98804725D01*
X155248736Y-98821954D01*
X155087832Y-98982858D01*
X154957310Y-99169265D01*
X154957309Y-99169267D01*
X154861139Y-99375502D01*
X154861136Y-99375511D01*
X154802244Y-99595302D01*
X154802242Y-99595313D01*
X154782410Y-99821998D01*
X154782410Y-99822001D01*
X154802242Y-100048686D01*
X154802244Y-100048697D01*
X154861136Y-100268488D01*
X154861139Y-100268497D01*
X154957309Y-100474732D01*
X154957310Y-100474734D01*
X155087832Y-100661141D01*
X155248736Y-100822045D01*
X155248739Y-100822047D01*
X155435144Y-100952568D01*
X155493153Y-100979618D01*
X155545592Y-101025791D01*
X155564744Y-101092984D01*
X155544528Y-101159865D01*
X155493153Y-101204382D01*
X155435145Y-101231431D01*
X155435143Y-101231432D01*
X155248736Y-101361954D01*
X155087832Y-101522858D01*
X154957310Y-101709265D01*
X154957309Y-101709267D01*
X154861139Y-101915502D01*
X154861136Y-101915511D01*
X154802244Y-102135302D01*
X154802242Y-102135313D01*
X154782410Y-102361998D01*
X154782410Y-102362001D01*
X154802242Y-102588686D01*
X154802244Y-102588697D01*
X154861136Y-102808488D01*
X154861139Y-102808497D01*
X154957309Y-103014732D01*
X154957310Y-103014734D01*
X155087832Y-103201141D01*
X155248736Y-103362045D01*
X155248739Y-103362047D01*
X155435144Y-103492568D01*
X155493153Y-103519618D01*
X155545592Y-103565791D01*
X155564744Y-103632984D01*
X155544528Y-103699865D01*
X155493153Y-103744382D01*
X155435145Y-103771431D01*
X155435143Y-103771432D01*
X155248736Y-103901954D01*
X155087832Y-104062858D01*
X154957310Y-104249265D01*
X154957309Y-104249267D01*
X154861139Y-104455502D01*
X154861136Y-104455511D01*
X154802244Y-104675302D01*
X154802242Y-104675313D01*
X154782410Y-104901998D01*
X154782410Y-104902001D01*
X154802242Y-105128686D01*
X154802244Y-105128697D01*
X154861136Y-105348488D01*
X154861139Y-105348497D01*
X154957309Y-105554732D01*
X154957310Y-105554734D01*
X155087832Y-105741141D01*
X155248736Y-105902045D01*
X155248739Y-105902047D01*
X155435144Y-106032568D01*
X155493153Y-106059618D01*
X155545592Y-106105791D01*
X155564744Y-106172984D01*
X155544528Y-106239865D01*
X155493153Y-106284382D01*
X155435145Y-106311431D01*
X155435143Y-106311432D01*
X155248736Y-106441954D01*
X155087832Y-106602858D01*
X154957310Y-106789265D01*
X154957309Y-106789267D01*
X154861139Y-106995502D01*
X154861136Y-106995511D01*
X154802244Y-107215302D01*
X154802242Y-107215313D01*
X154782410Y-107441998D01*
X154782410Y-107442001D01*
X154802242Y-107668686D01*
X154802244Y-107668697D01*
X154861136Y-107888488D01*
X154861139Y-107888497D01*
X154957309Y-108094732D01*
X154957310Y-108094734D01*
X155087832Y-108281141D01*
X155248736Y-108442045D01*
X155248739Y-108442047D01*
X155435144Y-108572568D01*
X155493153Y-108599618D01*
X155545592Y-108645791D01*
X155564744Y-108712984D01*
X155544528Y-108779865D01*
X155493153Y-108824382D01*
X155435145Y-108851431D01*
X155435143Y-108851432D01*
X155248736Y-108981954D01*
X155087832Y-109142858D01*
X154957310Y-109329265D01*
X154957309Y-109329267D01*
X154861139Y-109535502D01*
X154861136Y-109535511D01*
X154802244Y-109755302D01*
X154802242Y-109755313D01*
X154782410Y-109981998D01*
X154782410Y-109982001D01*
X154802242Y-110208686D01*
X154802244Y-110208697D01*
X154861136Y-110428488D01*
X154861139Y-110428497D01*
X154957309Y-110634732D01*
X154957310Y-110634734D01*
X155087832Y-110821141D01*
X155248736Y-110982045D01*
X155248739Y-110982047D01*
X155435144Y-111112568D01*
X155493153Y-111139618D01*
X155545592Y-111185791D01*
X155564744Y-111252984D01*
X155544528Y-111319865D01*
X155493153Y-111364382D01*
X155435145Y-111391431D01*
X155435143Y-111391432D01*
X155248736Y-111521954D01*
X155087832Y-111682858D01*
X154957310Y-111869265D01*
X154957309Y-111869267D01*
X154861139Y-112075502D01*
X154861136Y-112075511D01*
X154802244Y-112295302D01*
X154802242Y-112295313D01*
X154782410Y-112521998D01*
X154782410Y-112522001D01*
X154474650Y-112522001D01*
X154085875Y-93472000D01*
X172258219Y-93472000D01*
X172278814Y-93707403D01*
X172278816Y-93707413D01*
X172339972Y-93935655D01*
X172339974Y-93935659D01*
X172339975Y-93935663D01*
X172439843Y-94149830D01*
X172439845Y-94149834D01*
X172548159Y-94304521D01*
X172575383Y-94343401D01*
X172742477Y-94510495D01*
X172819013Y-94564086D01*
X172936043Y-94646032D01*
X172936045Y-94646033D01*
X172936048Y-94646035D01*
X173150215Y-94745903D01*
X173378470Y-94807063D01*
X173549197Y-94822000D01*
X173613877Y-94827659D01*
X173613878Y-94827659D01*
X173613879Y-94827659D01*
X173678559Y-94822000D01*
X173849286Y-94807063D01*
X174077541Y-94745903D01*
X174291708Y-94646035D01*
X174485279Y-94510495D01*
X174607595Y-94388178D01*
X174668914Y-94354696D01*
X174738606Y-94359680D01*
X174794540Y-94401551D01*
X174811455Y-94432528D01*
X174860524Y-94564088D01*
X174860527Y-94564093D01*
X174946687Y-94679187D01*
X174946690Y-94679190D01*
X175061784Y-94765350D01*
X175061791Y-94765354D01*
X175196498Y-94815596D01*
X175196505Y-94815598D01*
X175256033Y-94821999D01*
X175256050Y-94822000D01*
X175903878Y-94822000D01*
X175903878Y-93907501D01*
X176011563Y-93956680D01*
X176118115Y-93972000D01*
X176189641Y-93972000D01*
X176296193Y-93956680D01*
X176403878Y-93907501D01*
X176403878Y-94822000D01*
X177051706Y-94822000D01*
X177051722Y-94821999D01*
X177111250Y-94815598D01*
X177111257Y-94815596D01*
X177245964Y-94765354D01*
X177245971Y-94765350D01*
X177361065Y-94679190D01*
X177361068Y-94679187D01*
X177447228Y-94564093D01*
X177447232Y-94564086D01*
X177497474Y-94429379D01*
X177497476Y-94429372D01*
X177503877Y-94369844D01*
X177503878Y-94369827D01*
X177503878Y-93722000D01*
X176587564Y-93722000D01*
X176613371Y-93681844D01*
X176653878Y-93543889D01*
X176653878Y-93400111D01*
X176613371Y-93262156D01*
X176587564Y-93222000D01*
X177503878Y-93222000D01*
X177503878Y-92574172D01*
X177503877Y-92574155D01*
X177497476Y-92514627D01*
X177497474Y-92514620D01*
X177447232Y-92379913D01*
X177447228Y-92379906D01*
X177361068Y-92264812D01*
X177361065Y-92264809D01*
X177245971Y-92178649D01*
X177245964Y-92178645D01*
X177111257Y-92128403D01*
X177111250Y-92128401D01*
X177051722Y-92122000D01*
X176403878Y-92122000D01*
X176403878Y-93036498D01*
X176296193Y-92987320D01*
X176189641Y-92972000D01*
X176118115Y-92972000D01*
X176011563Y-92987320D01*
X175903878Y-93036498D01*
X175903878Y-92122000D01*
X175256033Y-92122000D01*
X175196505Y-92128401D01*
X175196498Y-92128403D01*
X175061791Y-92178645D01*
X175061784Y-92178649D01*
X174946690Y-92264809D01*
X174946687Y-92264812D01*
X174860527Y-92379906D01*
X174860523Y-92379913D01*
X174811456Y-92511470D01*
X174769585Y-92567404D01*
X174704120Y-92591821D01*
X174635847Y-92576969D01*
X174607593Y-92555819D01*
X174563244Y-92511470D01*
X174485279Y-92433505D01*
X174485275Y-92433502D01*
X174485274Y-92433501D01*
X174291712Y-92297967D01*
X174291708Y-92297965D01*
X174220605Y-92264809D01*
X174077541Y-92198097D01*
X174077537Y-92198096D01*
X174077533Y-92198094D01*
X173849291Y-92136938D01*
X173849281Y-92136936D01*
X173613879Y-92116341D01*
X173613877Y-92116341D01*
X173378474Y-92136936D01*
X173378464Y-92136938D01*
X173150222Y-92198094D01*
X173150213Y-92198098D01*
X172936049Y-92297964D01*
X172936047Y-92297965D01*
X172742475Y-92433505D01*
X172575383Y-92600597D01*
X172439843Y-92794169D01*
X172439842Y-92794171D01*
X172339976Y-93008335D01*
X172339972Y-93008344D01*
X172278816Y-93236586D01*
X172278814Y-93236596D01*
X172258219Y-93471999D01*
X172258219Y-93472000D01*
X154085875Y-93472000D01*
X153938131Y-86232529D01*
X153956443Y-86165103D01*
X154008303Y-86118280D01*
X154062105Y-86106000D01*
X157693822Y-86106000D01*
X157760861Y-86125685D01*
G37*
%TD.AperFunction*%
%TA.AperFunction,Conductor*%
G36*
X160301734Y-86125685D02*
G01*
X160347489Y-86178489D01*
X160357433Y-86247647D01*
X160328408Y-86311203D01*
X160305819Y-86331574D01*
X160296807Y-86337884D01*
X160296798Y-86337891D01*
X160129769Y-86504920D01*
X160129768Y-86504922D01*
X159999758Y-86690595D01*
X159945181Y-86734219D01*
X159875682Y-86741412D01*
X159813328Y-86709890D01*
X159796608Y-86690594D01*
X159666372Y-86504597D01*
X159499280Y-86337506D01*
X159499276Y-86337503D01*
X159490809Y-86331574D01*
X159447185Y-86276997D01*
X159439993Y-86207498D01*
X159471516Y-86145144D01*
X159531746Y-86109731D01*
X159561934Y-86106000D01*
X160234695Y-86106000D01*
X160301734Y-86125685D01*
G37*
%TD.AperFunction*%
%TD*%
M02*
